<svg width="22" height="22" viewBox="0 0 22 22" fill="none" xmlns="http://www.w3.org/2000/svg">
<g opacity="0.7">
<path d="M11 0C10.7958 0 10.5999 0.0811248 10.4555 0.225528C10.3111 0.369931 10.23 0.565783 10.23 0.77V18.37C10.23 18.5742 10.3111 18.7701 10.4555 18.9145C10.5999 19.0589 10.7958 19.14 11 19.14C11.2042 19.14 11.4 19.0589 11.5445 18.9145C11.6889 18.7701 11.77 18.5742 11.77 18.37V10.34H21.23C21.4342 10.34 21.63 10.2589 21.7745 10.1145C21.9189 9.97007 22 9.77422 22 9.57V0.77C22 0.565783 21.9189 0.369931 21.7745 0.225528C21.63 0.0811248 21.4342 0 21.23 0H11.11C11.0913 5.64628e-05 11.0727 0.00079028 11.0541 0.0022C11.0361 0.000832196 11.018 9.84093e-05 11 0V0ZM14.036 1.54H16.192V3.1746H18.348V1.54H20.46V3.1746H18.348V5.33038H20.46V7.48638H18.348V8.8H16.192V7.4866H14.036V8.8H11.88V7.4866H14.036V5.33038H11.88V3.17438H14.036V1.54ZM14.036 3.1746V5.33038H16.192V3.17438H14.036V3.1746ZM16.192 5.33038V7.48638H18.348V5.33038H16.192Z" fill="#BFBDBD"/>
<path d="M8.36091 16.8943C6.03023 17.2238 4.40002 18.0119 4.40002 19.1715C4.40002 20.7335 7.12385 22 11 22C14.8762 22 17.6 20.7337 17.6 19.1715C17.6 18.0117 15.9698 17.2238 13.6394 16.8945L13.3164 17.4443C15.0731 17.6878 16.28 18.2002 16.28 18.7944C16.28 19.6276 13.9161 20.303 11 20.303C8.08393 20.303 5.72002 19.6276 5.72002 18.7944C5.7198 18.2022 6.91902 17.6905 8.68101 17.4458C8.57453 17.2619 8.46761 17.0784 8.36091 16.8943Z" fill="#BFBDBD"/>
</g>
</svg>
