<svg width="32" height="31" viewBox="0 0 32 31" fill="none" xmlns="http://www.w3.org/2000/svg">
<g filter="url(#filter0_d_226_3764)">
<path fill-rule="evenodd" clip-rule="evenodd" d="M21.9786 2.4694L26.5745 7.06535C26.725 7.2146 26.8447 7.39208 26.9266 7.58762C27.0084 7.78317 27.051 7.99294 27.0517 8.20493C27.0524 8.41692 27.0113 8.62698 26.9308 8.82307C26.8502 9.01917 26.7318 9.19746 26.5823 9.34774L24.0273 11.9028L17.1489 5.02443L19.704 2.4694C20.0061 2.16877 20.415 2 20.8413 2C21.2675 2 21.6764 2.16877 21.9786 2.4694ZM2.03704 25.0441L3.51709 18.6565L15.8093 6.34875L22.6954 13.2193L10.3565 25.5115L3.92995 26.9916C3.81858 27.0028 3.70636 27.0028 3.59499 26.9916C3.35597 26.9901 3.1203 26.9353 2.90519 26.8311C2.69007 26.7269 2.50095 26.576 2.35164 26.3893C2.20232 26.2027 2.09659 25.9851 2.04216 25.7523C1.98773 25.5196 1.98598 25.2776 2.03704 25.0441Z" fill="#141414"/>
</g>
<defs>
<filter id="filter0_d_226_3764" x="0" y="0" width="31.0518" height="31" filterUnits="userSpaceOnUse" color-interpolation-filters="sRGB">
<feFlood flood-opacity="0" result="BackgroundImageFix"/>
<feColorMatrix in="SourceAlpha" type="matrix" values="0 0 0 0 0 0 0 0 0 0 0 0 0 0 0 0 0 0 127 0" result="hardAlpha"/>
<feOffset dx="1" dy="1"/>
<feGaussianBlur stdDeviation="1.5"/>
<feComposite in2="hardAlpha" operator="out"/>
<feColorMatrix type="matrix" values="0 0 0 0 0.0784314 0 0 0 0 0.0784314 0 0 0 0 0.0784314 0 0 0 0.3 0"/>
<feBlend mode="normal" in2="BackgroundImageFix" result="effect1_dropShadow_226_3764"/>
<feBlend mode="normal" in="SourceGraphic" in2="effect1_dropShadow_226_3764" result="shape"/>
</filter>
</defs>
</svg>
