<svg width="76" height="76" viewBox="0 0 76 76" fill="none" xmlns="http://www.w3.org/2000/svg">
<g filter="url(#filter0_d_457_8986)">
<circle cx="37" cy="37" r="35" fill="#BFBDBD"/>
</g>
<g filter="url(#filter1_d_457_8986)">
<path d="M24.75 46.5656C25.2082 51.775 29.4345 55.4719 35.8683 55.95V59.75H39.0976V55.95C46.1259 55.3906 50.4853 51.4562 50.4853 45.6375C50.4853 40.6688 47.5532 37.7937 41.333 36.175L39.0976 35.5906V23.7094C42.5715 24.0531 44.9153 25.9406 45.5067 28.7594H50.058C49.5441 23.7594 45.2899 20.1719 39.0976 19.775V16H35.8683V19.8531C29.8649 20.5719 25.7439 24.4531 25.7439 29.7156C25.7439 34.2594 28.7348 37.475 33.9828 38.8312L35.8714 39.3375V51.9344C32.3139 51.4031 29.8649 49.4344 29.2735 46.5656H24.75ZM35.2491 34.5781C32.0198 33.7563 30.2952 32 30.2952 29.5281C30.2952 26.5781 32.4749 24.4 35.8683 23.8156V34.7375L35.2491 34.5812V34.5781ZM40.1751 40.4281C44.1598 41.4375 45.9092 43.1125 45.9092 45.9562C45.9092 49.3844 43.3517 51.6688 39.0976 52.0156V40.1562L40.1751 40.425V40.4281Z" fill="white"/>
</g>
<defs>
<filter id="filter0_d_457_8986" x="0" y="0" width="76" height="76" filterUnits="userSpaceOnUse" color-interpolation-filters="sRGB">
<feFlood flood-opacity="0" result="BackgroundImageFix"/>
<feColorMatrix in="SourceAlpha" type="matrix" values="0 0 0 0 0 0 0 0 0 0 0 0 0 0 0 0 0 0 127 0" result="hardAlpha"/>
<feOffset dx="1" dy="1"/>
<feGaussianBlur stdDeviation="1.5"/>
<feComposite in2="hardAlpha" operator="out"/>
<feColorMatrix type="matrix" values="0 0 0 0 0.0784314 0 0 0 0 0.0784314 0 0 0 0 0.0784314 0 0 0 0.3 0"/>
<feBlend mode="normal" in2="BackgroundImageFix" result="effect1_dropShadow_457_8986"/>
<feBlend mode="normal" in="SourceGraphic" in2="effect1_dropShadow_457_8986" result="shape"/>
</filter>
<filter id="filter1_d_457_8986" x="22.75" y="14" width="31.7354" height="49.75" filterUnits="userSpaceOnUse" color-interpolation-filters="sRGB">
<feFlood flood-opacity="0" result="BackgroundImageFix"/>
<feColorMatrix in="SourceAlpha" type="matrix" values="0 0 0 0 0 0 0 0 0 0 0 0 0 0 0 0 0 0 127 0" result="hardAlpha"/>
<feOffset dx="1" dy="1"/>
<feGaussianBlur stdDeviation="1.5"/>
<feComposite in2="hardAlpha" operator="out"/>
<feColorMatrix type="matrix" values="0 0 0 0 0 0 0 0 0 0 0 0 0 0 0 0 0 0 0.3 0"/>
<feBlend mode="normal" in2="BackgroundImageFix" result="effect1_dropShadow_457_8986"/>
<feBlend mode="normal" in="SourceGraphic" in2="effect1_dropShadow_457_8986" result="shape"/>
</filter>
</defs>
</svg>
