<svg width="126" height="126" viewBox="0 0 126 126" fill="none" xmlns="http://www.w3.org/2000/svg">
<g filter="url(#filter0_d_241_4236)">
<circle cx="62" cy="62" r="60" fill="#FCD04A"/>
</g>
<g filter="url(#filter1_d_241_4236)">
<path d="M33.9875 43.9859L40.6813 37.2922C42.1627 35.8238 44.1641 35 46.25 35H78.1438C80.225 35 82.2359 35.8297 83.7125 37.2922L90.4062 43.9859H107V79.9438H98C95.525 79.9438 93.5281 77.9469 93.5141 75.4859H92.2344L80.3375 86.2297C75.9922 89.7594 69.9594 89.8438 65.4875 86.7641C63.7297 88.2828 61.8313 89 59.7078 89C57.1484 89 54.7437 87.9594 52.8453 85.625C49.7375 86.8484 46.0672 85.9906 43.8453 83.2625L40.1609 78.7203C39.3734 77.75 38.8812 76.6391 38.6281 75.4859H30.4859C30.4719 77.9469 28.4609 79.9438 26 79.9438H17V43.9859H33.9875ZM100.25 75.4438C101.488 75.4438 102.5 74.4313 102.5 73.1938C102.5 71.9562 101.488 70.9438 100.25 70.9438C99.0125 70.9438 98 71.9562 98 73.1938C98 74.4453 99.0125 75.4438 100.25 75.4438ZM45.4062 74.4734L49.0766 79.0016C49.4703 79.4797 50.1734 79.5641 50.6656 79.1703L54.0266 76.4422L58.2453 81.575C59.0891 82.6016 60.3547 82.25 60.7766 81.9125L65.9516 77.4828L68.1453 80.1828C70.1 82.5875 73.6578 82.9531 75.9219 81.1109L89.6047 68.7359H93.5V50.7219H87.6078L78.9312 42.0594C78.65 41.9469 78.4109 41.8484 78.1297 41.7359H70.1562L75.5984 46.7281C79.7328 50.5109 79.9719 56.8953 76.2172 60.9734C74.1359 63.2516 67.6109 66.7672 61.9438 61.5922L60.7906 60.5375L45.575 72.8844C45.0969 73.2781 45.0266 73.9953 45.4062 74.4734ZM30.5 68.7359H40.2313C40.5547 68.3422 40.9203 67.9766 41.3141 67.6531L55.7563 55.925L53.9984 54.3219C53.0844 53.4781 53.0141 52.0578 53.8578 51.1438L55.3906 49.4984C56.2344 48.5844 57.6547 48.5281 58.5688 49.3578L66.3312 56.4734C67.6672 57.6969 69.9453 57.7953 71.1969 56.4734C72.5047 55.0812 72.3922 52.9438 71.0281 51.7063L61.8031 43.2547C60.7625 42.2984 59.4125 41.7781 58.0063 41.7781L46.2359 41.75C45.9406 41.75 45.6594 41.8625 45.4625 42.0734L36.7859 50.7359H30.5V68.7359ZM23.75 75.4438C24.9875 75.4438 26 74.4313 26 73.1938C26 71.9562 24.9875 70.9438 23.75 70.9438C22.5125 70.9438 21.5 71.9562 21.5 73.1938C21.5 74.4453 22.5125 75.4438 23.75 75.4438Z" fill="#141414"/>
</g>
<ellipse cx="107.615" cy="16.115" rx="14.115" ry="14.115" fill="#EA4335"/>
<path d="M109.221 9.19667V22.0287H106.892V11.9125L103.807 12.932V11.0512L108.957 9.19667H109.221Z" fill="white"/>
<defs>
<filter id="filter0_d_241_4236" x="0" y="0" width="126" height="126" filterUnits="userSpaceOnUse" color-interpolation-filters="sRGB">
<feFlood flood-opacity="0" result="BackgroundImageFix"/>
<feColorMatrix in="SourceAlpha" type="matrix" values="0 0 0 0 0 0 0 0 0 0 0 0 0 0 0 0 0 0 127 0" result="hardAlpha"/>
<feOffset dx="1" dy="1"/>
<feGaussianBlur stdDeviation="1.5"/>
<feComposite in2="hardAlpha" operator="out"/>
<feColorMatrix type="matrix" values="0 0 0 0 0.0784314 0 0 0 0 0.0784314 0 0 0 0 0.0784314 0 0 0 0.3 0"/>
<feBlend mode="normal" in2="BackgroundImageFix" result="effect1_dropShadow_241_4236"/>
<feBlend mode="normal" in="SourceGraphic" in2="effect1_dropShadow_241_4236" result="shape"/>
</filter>
<filter id="filter1_d_241_4236" x="15" y="33" width="96" height="60" filterUnits="userSpaceOnUse" color-interpolation-filters="sRGB">
<feFlood flood-opacity="0" result="BackgroundImageFix"/>
<feColorMatrix in="SourceAlpha" type="matrix" values="0 0 0 0 0 0 0 0 0 0 0 0 0 0 0 0 0 0 127 0" result="hardAlpha"/>
<feOffset dx="1" dy="1"/>
<feGaussianBlur stdDeviation="1.5"/>
<feComposite in2="hardAlpha" operator="out"/>
<feColorMatrix type="matrix" values="0 0 0 0 0 0 0 0 0 0 0 0 0 0 0 0 0 0 0.3 0"/>
<feBlend mode="normal" in2="BackgroundImageFix" result="effect1_dropShadow_241_4236"/>
<feBlend mode="normal" in="SourceGraphic" in2="effect1_dropShadow_241_4236" result="shape"/>
</filter>
</defs>
</svg>
