<svg width="86" height="86" viewBox="0 0 86 86" fill="none" xmlns="http://www.w3.org/2000/svg">
<g filter="url(#filter0_d_241_4121)">
<circle cx="42" cy="42" r="40" fill="#FCD04A"/>
</g>
<path d="M32.6245 31.4426C32.0495 31.0576 31.567 30.5499 31.2117 29.9561C30.8565 29.3623 30.6372 28.6971 30.5697 28.0084C30.5023 27.3197 30.5883 26.6246 30.8216 25.9732C31.0549 25.3217 31.4296 24.73 31.919 24.2407L40.7878 15.3718C41.2676 14.892 41.846 14.5221 42.4829 14.2878C43.1197 14.0536 43.7999 13.9606 44.4763 14.0152C45.1527 14.0698 45.8091 14.2708 46.4001 14.6043C46.9912 14.9377 47.5026 15.3956 47.8992 15.9462L49.3758 17.9941L34.6005 32.7662L32.6245 31.4426ZM37.2447 34.5394L51.2239 20.5633L55.3508 26.2948C55.4487 26.4306 55.5678 26.5497 55.7036 26.6476L61.4382 30.7777L47.459 44.7569L43.535 38.8942C43.4216 38.7252 43.2763 38.5799 43.1073 38.4665L37.2447 34.5394ZM49.2322 47.401L64.0043 32.6258L66.049 34.1023C66.5997 34.4989 67.0576 35.0104 67.391 35.6014C67.7245 36.1924 67.9255 36.8489 67.9801 37.5252C68.0347 38.2016 67.9417 38.8818 67.7074 39.5187C67.4732 40.1556 67.1033 40.7339 66.6234 41.2137L57.7577 50.0795C57.2686 50.5689 56.6771 50.9439 56.0258 51.1775C55.3744 51.411 54.6794 51.4973 53.9908 51.4301C53.3021 51.363 52.6369 51.144 52.0429 50.789C51.449 50.434 50.9411 49.9518 50.5558 49.3771L49.2291 47.3979L49.2322 47.401ZM37.3758 38.3854L19.3508 56.4166C18.9286 56.823 18.5918 57.3095 18.3599 57.8477C18.128 58.3858 18.0057 58.9648 18.0002 59.5508C17.9947 60.1368 18.1061 60.7179 18.3279 61.2603C18.5497 61.8027 18.8774 62.2955 19.2918 62.7097C19.7063 63.124 20.1992 63.4514 20.7417 63.6729C21.2842 63.8945 21.8655 64.0056 22.4514 63.9998C23.0374 63.994 23.6163 63.8714 24.1543 63.6393C24.6924 63.4071 25.1787 63.07 25.5849 62.6476L43.613 44.6226L41.1125 40.889L37.3789 38.3885L37.3758 38.3854ZM49.2759 59.2574C49.2759 58.8434 49.4403 58.4464 49.733 58.1537C50.0258 57.861 50.4228 57.6965 50.8368 57.6965H60.202C60.616 57.6965 61.013 57.861 61.3057 58.1537C61.5984 58.4464 61.7629 58.8434 61.7629 59.2574C61.7629 59.6714 61.5984 60.0684 61.3057 60.3611C61.013 60.6538 60.616 60.8183 60.202 60.8183H66.4455C66.8595 60.8183 67.2565 60.9827 67.5492 61.2754C67.8419 61.5682 68.0064 61.9652 68.0064 62.3792C68.0064 62.7931 67.8419 63.1901 67.5492 63.4829C67.2565 63.7756 66.8595 63.94 66.4455 63.94H44.5933C44.1793 63.94 43.7823 63.7756 43.4895 63.4829C43.1968 63.1901 43.0324 62.7931 43.0324 62.3792C43.0324 61.9652 43.1968 61.5682 43.4895 61.2754C43.7823 60.9827 44.1793 60.8183 44.5933 60.8183H50.8368C50.4228 60.8183 50.0258 60.6538 49.733 60.3611C49.4403 60.0684 49.2759 59.6714 49.2759 59.2574Z" fill="black"/>
<defs>
<filter id="filter0_d_241_4121" x="0" y="0" width="86" height="86" filterUnits="userSpaceOnUse" color-interpolation-filters="sRGB">
<feFlood flood-opacity="0" result="BackgroundImageFix"/>
<feColorMatrix in="SourceAlpha" type="matrix" values="0 0 0 0 0 0 0 0 0 0 0 0 0 0 0 0 0 0 127 0" result="hardAlpha"/>
<feOffset dx="1" dy="1"/>
<feGaussianBlur stdDeviation="1.5"/>
<feComposite in2="hardAlpha" operator="out"/>
<feColorMatrix type="matrix" values="0 0 0 0 0 0 0 0 0 0 0 0 0 0 0 0 0 0 0.3 0"/>
<feBlend mode="normal" in2="BackgroundImageFix" result="effect1_dropShadow_241_4121"/>
<feBlend mode="normal" in="SourceGraphic" in2="effect1_dropShadow_241_4121" result="shape"/>
</filter>
</defs>
</svg>
