<svg width="120" height="120" viewBox="0 0 120 120" fill="none" xmlns="http://www.w3.org/2000/svg">
<circle cx="60" cy="60" r="60" fill="#ACD1FC"/>
<g filter="url(#filter0_d_241_4224)">
<path d="M35.5782 22.5H66.5626C66.8352 22.7876 67.0937 23.087 67.3703 23.361C73.9017 29.6969 80.4399 36.0237 86.9847 42.3414C87.5279 42.8677 87.748 43.1378 87.748 43.0497C87.7015 45.5387 87.7096 49.1156 87.7076 51.6085C87.7076 64.9144 87.7076 78.215 87.7076 91.5104C87.7076 91.8763 87.7177 92.2422 87.6935 92.6081C87.4915 95.6176 85.4461 97.5 82.3386 97.5C67.1785 97.5 52.0184 97.5 36.8583 97.5C33.7649 97.5 31.6973 95.5902 31.5156 92.5925C31.4933 92.2266 31.5014 91.8607 31.5014 91.4928V28.4739C31.5014 28.1315 31.5014 27.7891 31.5014 27.4486C31.5539 26.163 31.9557 25.0066 32.8603 24.04C33.6034 23.2514 34.5686 22.8307 35.5782 22.5Z" fill="#4285F4"/>
</g>
<path d="M66.3271 22.5V38.3966C66.3271 38.3966 66.3574 42.2475 70.6321 42.9186C74.9067 43.5898 87.5226 43.0595 87.5226 43.0595L66.3271 22.5Z" fill="#ACD1FC"/>
<path d="M73.9468 56.1855H45.3005V58.925H73.9468V56.1855Z" fill="white"/>
<path d="M73.9468 62.8381H45.3005V65.5776H73.9468V62.8381Z" fill="white"/>
<path d="M73.9468 69.8785H45.3005V72.618H73.9468V69.8785Z" fill="white"/>
<path d="M73.9468 76.5315H45.3005V79.2709H73.9468V76.5315Z" fill="white"/>
<path d="M67.0593 83.0984H52.188V85.8379H67.0593V83.0984Z" fill="white"/>
<defs>
<filter id="filter0_d_241_4224" x="29.5" y="20.5" width="62.2479" height="81" filterUnits="userSpaceOnUse" color-interpolation-filters="sRGB">
<feFlood flood-opacity="0" result="BackgroundImageFix"/>
<feColorMatrix in="SourceAlpha" type="matrix" values="0 0 0 0 0 0 0 0 0 0 0 0 0 0 0 0 0 0 127 0" result="hardAlpha"/>
<feOffset dx="1" dy="1"/>
<feGaussianBlur stdDeviation="1.5"/>
<feComposite in2="hardAlpha" operator="out"/>
<feColorMatrix type="matrix" values="0 0 0 0 0.0784314 0 0 0 0 0.0784314 0 0 0 0 0.0784314 0 0 0 0.3 0"/>
<feBlend mode="normal" in2="BackgroundImageFix" result="effect1_dropShadow_241_4224"/>
<feBlend mode="normal" in="SourceGraphic" in2="effect1_dropShadow_241_4224" result="shape"/>
</filter>
</defs>
</svg>
