<svg width="36" height="46" viewBox="0 0 36 46" fill="none" xmlns="http://www.w3.org/2000/svg">
<g filter="url(#filter0_d_2_959)">
<path d="M4.10776 2H20.1217C20.2626 2.15341 20.3962 2.31308 20.5392 2.45918C23.9149 5.83835 27.294 9.21264 30.6767 12.5821C30.9574 12.8628 31.0712 13.0068 31.0712 12.9598C31.0472 14.2873 31.0513 16.195 31.0503 17.5245C31.0503 24.621 31.0503 31.7147 31.0503 38.8056C31.0503 39.0007 31.0503 39.1959 31.043 39.391C30.9386 40.9961 29.8815 42 28.2764 42C20.4404 42 12.6047 42 4.7694 42C3.17061 42 2.10197 40.9815 2.00804 39.3827C1.99656 39.1875 2.00074 38.9924 2.00074 38.7962V5.1861C2.00074 5.00347 2.00074 4.82084 2.00596 4.63926C2.03309 3.95361 2.24077 3.33685 2.7083 2.82131C3.0913 2.40074 3.58492 2.17637 4.10776 2Z" fill="#34A853"/>
</g>
<path d="M20.1216 2V10.4782C20.1216 10.4782 20.1372 12.532 22.3465 12.8899C24.5558 13.2479 31.0762 12.9651 31.0762 12.9651L20.1216 2Z" fill="#C7E8D8"/>
<path d="M22.373 26.7771V28.9686H17.4222V32.8237H15.6564V28.9686H10.7056V26.7771H15.6564V22.9221H17.4222V26.7771H22.373ZM23.7297 22.443V33.3017C23.7297 33.5658 23.6248 33.8191 23.4381 34.006C23.2514 34.1929 22.9982 34.298 22.7341 34.2983H10.3403C10.0762 34.298 9.82294 34.1929 9.63626 34.006C9.44958 33.8191 9.34473 33.5658 9.34473 33.3017V22.443C9.34473 22.179 9.44962 21.9258 9.63633 21.739C9.82304 21.5523 10.0763 21.4474 10.3403 21.4474H22.7393C23.0033 21.4474 23.2566 21.5523 23.4433 21.739C23.63 21.9258 23.7349 22.179 23.7349 22.443H23.7297ZM22.1267 23.1276H10.9466V26.7802H11.0249V28.8486H10.9466V32.6139H22.1319L22.1267 23.1276Z" fill="white"/>
<defs>
<filter id="filter0_d_2_959" x="0" y="0" width="35.0713" height="46" filterUnits="userSpaceOnUse" color-interpolation-filters="sRGB">
<feFlood flood-opacity="0" result="BackgroundImageFix"/>
<feColorMatrix in="SourceAlpha" type="matrix" values="0 0 0 0 0 0 0 0 0 0 0 0 0 0 0 0 0 0 127 0" result="hardAlpha"/>
<feOffset dx="1" dy="1"/>
<feGaussianBlur stdDeviation="1.5"/>
<feComposite in2="hardAlpha" operator="out"/>
<feColorMatrix type="matrix" values="0 0 0 0 0.0784314 0 0 0 0 0.0784314 0 0 0 0 0.0784314 0 0 0 0.3 0"/>
<feBlend mode="normal" in2="BackgroundImageFix" result="effect1_dropShadow_2_959"/>
<feBlend mode="normal" in="SourceGraphic" in2="effect1_dropShadow_2_959" result="shape"/>
</filter>
</defs>
</svg>
