<svg width="36" height="46" viewBox="0 0 36 46" fill="none" xmlns="http://www.w3.org/2000/svg">
<g filter="url(#filter0_d_2_970)">
<path d="M4.10776 2H20.1217C20.2626 2.15341 20.3962 2.31308 20.5392 2.45918C23.9149 5.83835 27.294 9.21264 30.6767 12.5821C30.9574 12.8628 31.0712 13.0068 31.0712 12.9598C31.0472 14.2873 31.0513 16.195 31.0503 17.5245C31.0503 24.621 31.0503 31.7147 31.0503 38.8056C31.0503 39.0007 31.0503 39.1959 31.043 39.391C30.9386 40.9961 29.8815 42 28.2764 42C20.4404 42 12.6047 42 4.7694 42C3.17061 42 2.10197 40.9815 2.00804 39.3827C1.99656 39.1875 2.00074 38.9924 2.00074 38.7962V5.1861C2.00074 5.00347 2.00074 4.82084 2.00596 4.63926C2.03309 3.95361 2.24077 3.33685 2.7083 2.82131C3.0913 2.40074 3.58492 2.17637 4.10776 2Z" fill="#EA4335"/>
</g>
<path d="M20.147 2.02197V10.5001C20.147 10.5001 20.1626 12.5539 22.3719 12.9119C24.5812 13.2699 31.1016 12.987 31.1016 12.987L20.147 2.02197Z" fill="#FFC6C1"/>
<path d="M10.7437 30.2124H8.75098V28.9556H10.7437C11.0516 28.9556 11.3022 28.9054 11.4956 28.8052C11.689 28.7013 11.8304 28.5581 11.9199 28.3755C12.0094 28.1929 12.0542 27.987 12.0542 27.7578C12.0542 27.5251 12.0094 27.3084 11.9199 27.1079C11.8304 26.9074 11.689 26.7463 11.4956 26.6245C11.3022 26.5028 11.0516 26.4419 10.7437 26.4419H9.30957V33H7.69824V25.1797H10.7437C11.356 25.1797 11.8805 25.2907 12.3174 25.5127C12.7578 25.7311 13.0944 26.0337 13.3271 26.4204C13.5599 26.8071 13.6763 27.2493 13.6763 27.7471C13.6763 28.252 13.5599 28.6888 13.3271 29.0576C13.0944 29.4264 12.7578 29.7111 12.3174 29.9116C11.8805 30.1121 11.356 30.2124 10.7437 30.2124Z" fill="white"/>
<path d="M17.189 33H15.4863L15.4971 31.7432H17.189C17.6115 31.7432 17.9678 31.6483 18.2578 31.4585C18.5479 31.2651 18.7663 30.984 18.9131 30.6152C19.0635 30.2464 19.1387 29.8006 19.1387 29.2778V28.8965C19.1387 28.4954 19.0957 28.1427 19.0098 27.8384C18.9274 27.534 18.8039 27.278 18.6392 27.0703C18.4744 26.8626 18.2721 26.7069 18.0322 26.603C17.7923 26.4956 17.5166 26.4419 17.2051 26.4419H15.4541V25.1797H17.2051C17.7279 25.1797 18.2059 25.2692 18.6392 25.4482C19.076 25.6237 19.4538 25.8761 19.7725 26.2056C20.0911 26.535 20.3364 26.9289 20.5083 27.3872C20.6838 27.842 20.7715 28.3486 20.7715 28.9072V29.2778C20.7715 29.8328 20.6838 30.3395 20.5083 30.7979C20.3364 31.2562 20.0911 31.6501 19.7725 31.9795C19.4574 32.3053 19.0796 32.5578 18.6392 32.7368C18.2023 32.9123 17.7189 33 17.189 33ZM16.3994 25.1797V33H14.7881V25.1797H16.3994Z" fill="white"/>
<path d="M23.5537 25.1797V33H21.9424V25.1797H23.5537ZM26.6689 28.5205V29.7773H23.1133V28.5205H26.6689ZM27.0449 25.1797V26.4419H23.1133V25.1797H27.0449Z" fill="white"/>
<defs>
<filter id="filter0_d_2_970" x="0" y="0" width="35.0713" height="46" filterUnits="userSpaceOnUse" color-interpolation-filters="sRGB">
<feFlood flood-opacity="0" result="BackgroundImageFix"/>
<feColorMatrix in="SourceAlpha" type="matrix" values="0 0 0 0 0 0 0 0 0 0 0 0 0 0 0 0 0 0 127 0" result="hardAlpha"/>
<feOffset dx="1" dy="1"/>
<feGaussianBlur stdDeviation="1.5"/>
<feComposite in2="hardAlpha" operator="out"/>
<feColorMatrix type="matrix" values="0 0 0 0 0.0784314 0 0 0 0 0.0784314 0 0 0 0 0.0784314 0 0 0 0.3 0"/>
<feBlend mode="normal" in2="BackgroundImageFix" result="effect1_dropShadow_2_970"/>
<feBlend mode="normal" in="SourceGraphic" in2="effect1_dropShadow_2_970" result="shape"/>
</filter>
</defs>
</svg>
