<svg width="36" height="46" viewBox="0 0 36 46" fill="none" xmlns="http://www.w3.org/2000/svg">
<g filter="url(#filter0_d_2_951)">
<path d="M4.17502 2H20.7001C20.8455 2.15341 20.9833 2.31308 21.1308 2.45918C24.6143 5.83835 28.1013 9.21264 31.5919 12.5821C31.8815 12.8628 31.9989 13.0068 31.9989 12.9598C31.9742 14.2873 31.9785 16.195 31.9774 17.5245C31.9774 24.621 31.9774 31.7147 31.9774 38.8056C31.9774 39.0007 31.9828 39.1959 31.9698 39.391C31.8622 40.9961 30.7713 42 29.1139 42C21.0285 42 12.9432 42 4.85778 42C3.20796 42 2.10522 40.9815 2.0083 39.3827C1.99645 39.1875 2.00077 38.9924 2.00077 38.7962V5.1861C2.00077 5.00347 2.00077 4.82084 2.00077 4.63926C2.02877 3.95361 2.24307 3.33685 2.72552 2.82131C3.12182 2.40074 3.63657 2.17637 4.17502 2Z" fill="#4285F4"/>
</g>
<path d="M20.5747 2V10.4782C20.5747 10.4782 20.5909 12.532 22.8707 12.8899C25.1505 13.2479 31.8789 12.9651 31.8789 12.9651L20.5747 2Z" fill="#ACD1FC"/>
<path d="M24.6384 19.9656H9.36035V21.4267H24.6384V19.9656Z" fill="white"/>
<path d="M24.6384 23.5137H9.36035V24.9747H24.6384V23.5137Z" fill="white"/>
<path d="M24.6384 27.2686H9.36035V28.7296H24.6384V27.2686Z" fill="white"/>
<path d="M24.6384 30.8168H9.36035V32.2778H24.6384V30.8168Z" fill="white"/>
<path d="M20.9651 34.3192H13.0337V35.7802H20.9651V34.3192Z" fill="white"/>
<defs>
<filter id="filter0_d_2_951" x="0" y="0" width="35.999" height="46" filterUnits="userSpaceOnUse" color-interpolation-filters="sRGB">
<feFlood flood-opacity="0" result="BackgroundImageFix"/>
<feColorMatrix in="SourceAlpha" type="matrix" values="0 0 0 0 0 0 0 0 0 0 0 0 0 0 0 0 0 0 127 0" result="hardAlpha"/>
<feOffset dx="1" dy="1"/>
<feGaussianBlur stdDeviation="1.5"/>
<feComposite in2="hardAlpha" operator="out"/>
<feColorMatrix type="matrix" values="0 0 0 0 0.0784314 0 0 0 0 0.0784314 0 0 0 0 0.0784314 0 0 0 0.3 0"/>
<feBlend mode="normal" in2="BackgroundImageFix" result="effect1_dropShadow_2_951"/>
<feBlend mode="normal" in="SourceGraphic" in2="effect1_dropShadow_2_951" result="shape"/>
</filter>
</defs>
</svg>
