<svg width="30" height="40" viewBox="0 0 30 40" fill="none" xmlns="http://www.w3.org/2000/svg">
<path fill-rule="evenodd" clip-rule="evenodd" d="M24.0972 15.1237C25.2446 13.5248 25.8571 11.6452 25.8571 9.72227C25.8571 7.14376 24.7569 4.67086 22.7985 2.84759C20.8401 1.02431 18.184 0 15.4145 0C13.3491 0 11.3301 0.570201 9.61287 1.6385C7.89559 2.70679 6.55714 4.2252 5.76677 6.00172C4.97639 7.77823 4.76959 9.73305 5.17252 11.619C5.57545 13.5049 6.57001 15.2373 8.03044 16.5969C9.49086 17.9566 11.3515 18.8826 13.3772 19.2577C15.4029 19.6329 17.5025 19.4403 19.4107 18.7045C21.3188 17.9686 22.9497 16.7225 24.0972 15.1237ZM0 40H29.836V33.0555C29.8328 30.4779 28.7316 28.0067 26.7739 26.1841C24.8162 24.3615 22.162 23.3362 19.3934 23.3333H10.4426C7.67401 23.3362 5.01973 24.3615 3.06205 26.1841C1.10437 28.0067 0.00315868 30.4779 0 33.0555V40Z" fill="#BFBDBD"/>
</svg>
