<svg width="45" height="60" viewBox="0 0 45 60" fill="none" xmlns="http://www.w3.org/2000/svg">
<g filter="url(#filter0_d_2482_3151)">
<mask id="path-1-inside-1_2482_3151" fill="white">
<path fill-rule="evenodd" clip-rule="evenodd" d="M32.3883 22.846C33.8633 20.6561 34.6506 18.0814 34.6506 15.4476C34.6506 11.9158 33.2363 8.52863 30.719 6.03125C28.2016 3.53387 24.7874 2.13086 21.2273 2.13086C18.5724 2.13086 15.9771 2.91187 13.7697 4.37514C11.5622 5.8384 9.84175 7.9182 8.82577 10.3515C7.8098 12.7848 7.54397 15.4624 8.06191 18.0456C8.57985 20.6288 9.8583 23.0016 11.7356 24.864C13.6129 26.7264 16.0047 27.9947 18.6085 28.5085C21.2124 29.0223 23.9114 28.7586 26.3642 27.7507C28.8169 26.7428 30.9134 25.0359 32.3883 22.846ZM2.05115 45.8859V55.3979H40.4034V45.8859C40.3994 42.3553 38.9838 38.9705 36.4673 36.474C33.9509 33.9775 30.539 32.5732 26.9801 32.5692H15.4744C11.9156 32.5732 8.5037 33.9775 5.98722 36.474C3.47075 38.9705 2.05521 42.3553 2.05115 45.8859Z"/>
</mask>
<path fill-rule="evenodd" clip-rule="evenodd" d="M32.3883 22.846C33.8633 20.6561 34.6506 18.0814 34.6506 15.4476C34.6506 11.9158 33.2363 8.52863 30.719 6.03125C28.2016 3.53387 24.7874 2.13086 21.2273 2.13086C18.5724 2.13086 15.9771 2.91187 13.7697 4.37514C11.5622 5.8384 9.84175 7.9182 8.82577 10.3515C7.8098 12.7848 7.54397 15.4624 8.06191 18.0456C8.57985 20.6288 9.8583 23.0016 11.7356 24.864C13.6129 26.7264 16.0047 27.9947 18.6085 28.5085C21.2124 29.0223 23.9114 28.7586 26.3642 27.7507C28.8169 26.7428 30.9134 25.0359 32.3883 22.846ZM2.05115 45.8859V55.3979H40.4034V45.8859C40.3994 42.3553 38.9838 38.9705 36.4673 36.474C33.9509 33.9775 30.539 32.5732 26.9801 32.5692H15.4744C11.9156 32.5732 8.5037 33.9775 5.98722 36.474C3.47075 38.9705 2.05521 42.3553 2.05115 45.8859Z" fill="white"/>
<path d="M32.3883 22.846L35.706 25.0805V25.0805L32.3883 22.846ZM30.719 6.03125L27.9019 8.87092L30.719 6.03125ZM13.7697 4.37514L15.9797 7.70916L15.9797 7.70916L13.7697 4.37514ZM8.06191 18.0456L11.9839 17.2592V17.2592L8.06191 18.0456ZM11.7356 24.864L14.5527 22.0243H14.5527L11.7356 24.864ZM18.6085 28.5085L19.3829 24.5842L18.6085 28.5085ZM26.3642 27.7507L24.8438 24.0509L24.8438 24.0509L26.3642 27.7507ZM2.05115 55.3979H-1.94885V59.3979H2.05115V55.3979ZM2.05115 45.8859L-1.94885 45.8813V45.8859H2.05115ZM40.4034 55.3979V59.3979H44.4034V55.3979H40.4034ZM40.4034 45.8859H44.4034L44.4034 45.8813L40.4034 45.8859ZM36.4673 36.474L39.2845 33.6343L39.2845 33.6343L36.4673 36.474ZM26.9801 32.5692L26.9847 28.5692H26.9801V32.5692ZM15.4744 32.5692V28.5692L15.4699 28.5692L15.4744 32.5692ZM5.98722 36.474L3.17009 33.6343L3.17009 33.6343L5.98722 36.474ZM30.6506 15.4476C30.6506 17.2832 30.1021 19.0802 29.0707 20.6115L35.706 25.0805C37.6246 22.232 38.6506 18.8797 38.6506 15.4476H30.6506ZM27.9019 8.87092C29.6656 10.6207 30.6506 12.987 30.6506 15.4476H38.6506C38.6506 10.8446 36.8071 6.4366 33.5361 3.19157L27.9019 8.87092ZM21.2273 6.13086C23.7367 6.13086 26.137 7.12012 27.9019 8.87092L33.5361 3.19157C30.2662 -0.0523815 25.838 -1.86914 21.2273 -1.86914V6.13086ZM15.9797 7.70916C17.5302 6.68137 19.3565 6.13086 21.2273 6.13086V-1.86914C17.7883 -1.86914 14.424 -0.857622 11.5597 1.04112L15.9797 7.70916ZM12.517 11.8927C13.2263 10.1939 14.4296 8.73672 15.9797 7.70916L11.5597 1.04111C8.69491 2.94009 6.45725 5.64252 5.13459 8.81035L12.517 11.8927ZM11.9839 17.2592C11.6228 15.4583 11.8078 13.5912 12.517 11.8927L5.13459 8.81035C3.8118 11.9785 3.46519 15.4665 4.13997 18.832L11.9839 17.2592ZM14.5527 22.0243C13.2372 20.7193 12.345 19.0604 11.9839 17.2592L4.13997 18.832C4.81471 22.1972 6.47939 25.284 8.91845 27.7037L14.5527 22.0243ZM19.3829 24.5842C17.5489 24.2223 15.8686 23.3297 14.5527 22.0243L8.91844 27.7037C11.3572 30.123 14.4604 31.7671 17.8341 32.4328L19.3829 24.5842ZM24.8438 24.0509C23.118 24.7601 21.2171 24.9461 19.3829 24.5842L17.8341 32.4328C21.2077 33.0985 24.7048 32.7571 27.8845 31.4505L24.8438 24.0509ZM29.0707 20.6115C28.039 22.1432 26.5693 23.3418 24.8438 24.0509L27.8845 31.4505C31.0646 30.1437 33.7877 27.9287 35.706 25.0805L29.0707 20.6115ZM6.05115 55.3979V45.8859H-1.94885V55.3979H6.05115ZM40.4034 51.3979H2.05115V59.3979H40.4034V51.3979ZM36.4034 45.8859V55.3979H44.4034V45.8859H36.4034ZM33.6502 39.3137C35.4142 41.0637 36.4006 43.4295 36.4034 45.8905L44.4034 45.8813C44.3981 41.2812 42.5535 36.8774 39.2845 33.6343L33.6502 39.3137ZM26.9756 36.5692C29.4854 36.572 31.8852 37.5626 33.6502 39.3137L39.2845 33.6343C36.0166 30.3924 31.5926 28.5744 26.9847 28.5692L26.9756 36.5692ZM15.4744 36.5692H26.9801V28.5692H15.4744V36.5692ZM8.80436 39.3137C10.5694 37.5626 12.9692 36.572 15.479 36.5692L15.4699 28.5692C10.862 28.5744 6.438 30.3924 3.17009 33.6343L8.80436 39.3137ZM6.05114 45.8905C6.05397 43.4295 7.04039 41.0637 8.80436 39.3137L3.17009 33.6343C-0.0988913 36.8774 -1.94356 41.2812 -1.94885 45.8813L6.05114 45.8905Z" fill="#EA4335" mask="url(#path-1-inside-1_2482_3151)"/>
</g>
<defs>
<filter id="filter0_d_2482_3151" x="0.0511475" y="0.130859" width="44.3523" height="59.2666" filterUnits="userSpaceOnUse" color-interpolation-filters="sRGB">
<feFlood flood-opacity="0" result="BackgroundImageFix"/>
<feColorMatrix in="SourceAlpha" type="matrix" values="0 0 0 0 0 0 0 0 0 0 0 0 0 0 0 0 0 0 127 0" result="hardAlpha"/>
<feOffset dx="1" dy="1"/>
<feGaussianBlur stdDeviation="1.5"/>
<feComposite in2="hardAlpha" operator="out"/>
<feColorMatrix type="matrix" values="0 0 0 0 0.0784314 0 0 0 0 0.0784314 0 0 0 0 0.0784314 0 0 0 0.3 0"/>
<feBlend mode="normal" in2="BackgroundImageFix" result="effect1_dropShadow_2482_3151"/>
<feBlend mode="normal" in="SourceGraphic" in2="effect1_dropShadow_2482_3151" result="shape"/>
</filter>
</defs>
</svg>
