<svg width="34" height="45" viewBox="0 0 34 45" fill="none" xmlns="http://www.w3.org/2000/svg">
<g filter="url(#filter0_d_2482_1632)">
<mask id="path-1-inside-1_2482_1632" fill="white">
<path fill-rule="evenodd" clip-rule="evenodd" d="M23.9819 16.9603C25.0355 15.3836 25.5978 13.5298 25.5978 11.6335C25.5978 9.09056 24.5876 6.6518 22.7895 4.85369C20.9914 3.05558 18.5527 2.04541 16.0097 2.04541C14.1134 2.04541 12.2596 2.60774 10.6829 3.66129C9.10615 4.71484 7.87722 6.21229 7.15152 7.96428C6.42582 9.71627 6.23595 11.6441 6.6059 13.504C6.97586 15.3639 7.88904 17.0723 9.22995 18.4133C10.5709 19.7542 12.2793 20.6674 14.1392 21.0373C15.9991 21.4073 17.9269 21.2174 19.6789 20.4917C21.4309 19.766 22.9284 18.5371 23.9819 16.9603ZM2.3125 40.3977H29.707V33.5491C29.7041 31.007 28.693 28.57 26.8955 26.7725C25.098 24.975 22.6609 23.9639 20.1189 23.961H11.9006C9.35855 23.9639 6.92147 24.975 5.12398 26.7725C3.3265 28.57 2.3154 31.007 2.3125 33.5491V40.3977Z"/>
</mask>
<path fill-rule="evenodd" clip-rule="evenodd" d="M23.9819 16.9603C25.0355 15.3836 25.5978 13.5298 25.5978 11.6335C25.5978 9.09056 24.5876 6.6518 22.7895 4.85369C20.9914 3.05558 18.5527 2.04541 16.0097 2.04541C14.1134 2.04541 12.2596 2.60774 10.6829 3.66129C9.10615 4.71484 7.87722 6.21229 7.15152 7.96428C6.42582 9.71627 6.23595 11.6441 6.6059 13.504C6.97586 15.3639 7.88904 17.0723 9.22995 18.4133C10.5709 19.7542 12.2793 20.6674 14.1392 21.0373C15.9991 21.4073 17.9269 21.2174 19.6789 20.4917C21.4309 19.766 22.9284 18.5371 23.9819 16.9603ZM2.3125 40.3977H29.707V33.5491C29.7041 31.007 28.693 28.57 26.8955 26.7725C25.098 24.975 22.6609 23.9639 20.1189 23.961H11.9006C9.35855 23.9639 6.92147 24.975 5.12398 26.7725C3.3265 28.57 2.3154 31.007 2.3125 33.5491V40.3977Z" fill="white"/>
<path d="M23.9819 16.9603L26.4763 18.627H26.4763L23.9819 16.9603ZM22.7895 4.85369L24.9109 2.73237L24.9109 2.73237L22.7895 4.85369ZM10.6829 3.66129L12.3496 6.1557L12.3496 6.1557L10.6829 3.66129ZM7.15152 7.96428L4.37988 6.81623L7.15152 7.96428ZM6.6059 13.504L3.66355 14.0893L3.66355 14.0893L6.6059 13.504ZM9.22995 18.4133L7.10863 20.5346L7.10864 20.5346L9.22995 18.4133ZM14.1392 21.0373L14.7245 18.095H14.7245L14.1392 21.0373ZM19.6789 20.4917L20.827 23.2633H20.827L19.6789 20.4917ZM29.707 40.3977V43.3977H32.707V40.3977H29.707ZM2.3125 40.3977H-0.6875V43.3977H2.3125V40.3977ZM29.707 33.5491H32.707L32.707 33.5456L29.707 33.5491ZM20.1189 23.961L20.1223 20.961H20.1189V23.961ZM11.9006 23.961V20.961L11.8971 20.961L11.9006 23.961ZM5.12398 26.7725L3.00266 24.6512H3.00266L5.12398 26.7725ZM2.3125 33.5491L-0.6875 33.5456V33.5491H2.3125ZM22.5978 11.6335C22.5978 12.9365 22.2114 14.2102 21.4875 15.2936L26.4763 18.627C27.8595 16.5569 28.5978 14.1232 28.5978 11.6335H22.5978ZM20.6682 6.97501C21.9037 8.21051 22.5978 9.88621 22.5978 11.6335H28.5978C28.5978 8.29491 27.2716 5.09309 24.9109 2.73237L20.6682 6.97501ZM16.0097 5.04541C17.757 5.04541 19.4327 5.73951 20.6682 6.97501L24.9109 2.73237C22.5501 0.371649 19.3483 -0.95459 16.0097 -0.95459V5.04541ZM12.3496 6.1557C13.433 5.43179 14.7067 5.04541 16.0097 5.04541V-0.95459C13.5201 -0.95459 11.0863 -0.216313 9.01619 1.16688L12.3496 6.1557ZM9.92316 9.11233C10.4218 7.90852 11.2662 6.87961 12.3496 6.1557L9.01619 1.16688C6.94609 2.55008 5.33264 4.51606 4.37988 6.81623L9.92316 9.11233ZM9.54826 12.9187C9.29406 11.6408 9.42452 10.3161 9.92316 9.11233L4.37988 6.81623C3.42712 9.1164 3.17783 11.6474 3.66355 14.0893L9.54826 12.9187ZM11.3513 16.2919C10.4299 15.3706 9.80246 14.1967 9.54826 12.9187L3.66355 14.0893C4.14926 16.5311 5.34816 18.7741 7.10863 20.5346L11.3513 16.2919ZM14.7245 18.095C13.4465 17.8408 12.2726 17.2133 11.3513 16.2919L7.10864 20.5346C8.86911 22.2951 11.1121 23.494 13.5539 23.9797L14.7245 18.095ZM18.5309 17.7201C17.3271 18.2187 16.0024 18.3492 14.7245 18.095L13.5539 23.9797C15.9958 24.4654 18.5268 24.2161 20.827 23.2633L18.5309 17.7201ZM21.4875 15.2936C20.7636 16.377 19.7347 17.2214 18.5309 17.7201L20.827 23.2633C23.1272 22.3106 25.0931 20.6971 26.4763 18.627L21.4875 15.2936ZM29.707 37.3977H2.3125V43.3977H29.707V37.3977ZM26.707 33.5491V40.3977H32.707V33.5491H26.707ZM24.7742 28.8938C26.0099 30.1295 26.705 31.8049 26.707 33.5525L32.707 33.5456C32.7032 30.2092 31.3761 27.0104 29.0168 24.6512L24.7742 28.8938ZM20.1155 26.961C21.8631 26.963 23.5385 27.6581 24.7742 28.8938L29.0168 24.6512C26.6576 22.2919 23.4588 20.9648 20.1223 20.961L20.1155 26.961ZM11.9006 26.961H20.1189V20.961H11.9006V26.961ZM7.2453 28.8938C8.48102 27.6581 10.1564 26.963 11.904 26.961L11.8971 20.961C8.56066 20.9648 5.36192 22.2919 3.00266 24.6512L7.2453 28.8938ZM5.3125 33.5525C5.31449 31.8049 6.00959 30.1295 7.2453 28.8938L3.00266 24.6512C0.64341 27.0104 -0.683692 30.2092 -0.687498 33.5456L5.3125 33.5525ZM5.3125 40.3977V33.5491H-0.6875V40.3977H5.3125Z" fill="#EA4335" mask="url(#path-1-inside-1_2482_1632)"/>
</g>
<defs>
<filter id="filter0_d_2482_1632" x="0.3125" y="0.0454102" width="33.3945" height="44.3523" filterUnits="userSpaceOnUse" color-interpolation-filters="sRGB">
<feFlood flood-opacity="0" result="BackgroundImageFix"/>
<feColorMatrix in="SourceAlpha" type="matrix" values="0 0 0 0 0 0 0 0 0 0 0 0 0 0 0 0 0 0 127 0" result="hardAlpha"/>
<feOffset dx="1" dy="1"/>
<feGaussianBlur stdDeviation="1.5"/>
<feComposite in2="hardAlpha" operator="out"/>
<feColorMatrix type="matrix" values="0 0 0 0 0 0 0 0 0 0 0 0 0 0 0 0 0 0 0.3 0"/>
<feBlend mode="normal" in2="BackgroundImageFix" result="effect1_dropShadow_2482_1632"/>
<feBlend mode="normal" in="SourceGraphic" in2="effect1_dropShadow_2482_1632" result="shape"/>
</filter>
</defs>
</svg>
