<svg width="45" height="60" viewBox="0 0 45 60" fill="none" xmlns="http://www.w3.org/2000/svg">
<g filter="url(#filter0_d_2482_1628)">
<mask id="path-1-inside-1_2482_1628" fill="white">
<path fill-rule="evenodd" clip-rule="evenodd" d="M32.3372 22.8458C33.8122 20.6558 34.5994 18.0812 34.5994 15.4474C34.5994 11.9156 33.1852 8.52838 30.6678 6.031C28.1505 3.53363 24.7362 2.13062 21.1761 2.13062C18.5213 2.13062 15.926 2.91163 13.7186 4.37489C11.5111 5.83816 9.79061 7.91795 8.77463 10.3513C7.75865 12.7846 7.49282 15.4621 8.01077 18.0453C8.52871 20.6285 9.80715 23.0014 11.6844 24.8637C13.5617 26.7261 15.9535 27.9944 18.5574 28.5083C21.1612 29.0221 23.8602 28.7584 26.313 27.7505C28.7658 26.7425 30.8622 25.0357 32.3372 22.8458ZM2 55.3977H40.3523V45.8857C40.3482 42.3551 38.9327 38.9703 36.4162 36.4738C33.8997 33.9773 30.4878 32.573 26.929 32.5689H15.4233C11.8645 32.573 8.45255 33.9773 5.93608 36.4738C3.4196 38.9703 2.00406 42.3551 2 45.8857V55.3977Z"/>
</mask>
<path fill-rule="evenodd" clip-rule="evenodd" d="M32.3372 22.8458C33.8122 20.6558 34.5994 18.0812 34.5994 15.4474C34.5994 11.9156 33.1852 8.52838 30.6678 6.031C28.1505 3.53363 24.7362 2.13062 21.1761 2.13062C18.5213 2.13062 15.926 2.91163 13.7186 4.37489C11.5111 5.83816 9.79061 7.91795 8.77463 10.3513C7.75865 12.7846 7.49282 15.4621 8.01077 18.0453C8.52871 20.6285 9.80715 23.0014 11.6844 24.8637C13.5617 26.7261 15.9535 27.9944 18.5574 28.5083C21.1612 29.0221 23.8602 28.7584 26.313 27.7505C28.7658 26.7425 30.8622 25.0357 32.3372 22.8458ZM2 55.3977H40.3523V45.8857C40.3482 42.3551 38.9327 38.9703 36.4162 36.4738C33.8997 33.9773 30.4878 32.573 26.929 32.5689H15.4233C11.8645 32.573 8.45255 33.9773 5.93608 36.4738C3.4196 38.9703 2.00406 42.3551 2 45.8857V55.3977Z" fill="white"/>
<path d="M32.3372 22.8458L35.6549 25.0803V25.0803L32.3372 22.8458ZM30.6678 6.031L27.8507 8.87068L30.6678 6.031ZM13.7186 4.37489L11.5085 1.04087L13.7186 4.37489ZM8.77463 10.3513L5.08345 8.8101L5.08345 8.8101L8.77463 10.3513ZM11.6844 24.8637L14.5016 22.0241L14.5016 22.0241L11.6844 24.8637ZM18.5574 28.5083L17.783 32.4326L18.5574 28.5083ZM26.313 27.7505L24.7927 24.0507L24.7927 24.0507L26.313 27.7505ZM40.3523 55.3977V59.3977H44.3523V55.3977H40.3523ZM2 55.3977H-2V59.3977H2V55.3977ZM40.3523 45.8857H44.3523L44.3523 45.8811L40.3523 45.8857ZM36.4162 36.4738L39.2333 33.6341L39.2333 33.6341L36.4162 36.4738ZM26.929 32.5689L26.9335 28.5689H26.929V32.5689ZM15.4233 32.5689V28.5689L15.4188 28.5689L15.4233 32.5689ZM5.93608 36.4738L3.11894 33.6341L3.11894 33.6341L5.93608 36.4738ZM2 45.8857L-2 45.8811V45.8857H2ZM30.5994 15.4474C30.5994 17.2829 30.0509 19.0799 29.0195 20.6112L35.6549 25.0803C37.5734 22.2318 38.5994 18.8794 38.5994 15.4474H30.5994ZM27.8507 8.87068C29.6144 10.6204 30.5994 12.9867 30.5994 15.4474H38.5994C38.5994 10.8444 36.756 6.43636 33.485 3.19133L27.8507 8.87068ZM21.1761 6.13062C23.6856 6.13062 26.0859 7.11988 27.8507 8.87068L33.485 3.19133C30.2151 -0.0526252 25.7868 -1.86938 21.1761 -1.86938V6.13062ZM15.9286 7.70892C17.4791 6.68113 19.3053 6.13062 21.1761 6.13062V-1.86938C17.7372 -1.86938 14.3729 -0.857866 11.5085 1.04087L15.9286 7.70892ZM12.4658 11.8924C13.1751 10.1936 14.3784 8.73647 15.9286 7.70892L11.5085 1.04087C8.64376 2.93984 6.4061 5.64228 5.08345 8.8101L12.4658 11.8924ZM11.9327 17.259C11.5716 15.458 11.7566 13.5909 12.4658 11.8924L5.08345 8.8101C3.76066 11.9783 3.41404 15.4663 4.08882 18.8317L11.9327 17.259ZM14.5016 22.0241C13.1861 20.719 12.2938 19.0601 11.9327 17.259L4.08882 18.8317C4.76357 22.197 6.42824 25.2837 8.8673 27.7034L14.5016 22.0241ZM19.3318 24.5839C17.4978 24.222 15.8174 23.3295 14.5016 22.0241L8.8673 27.7034C11.306 30.1228 14.4093 31.7668 17.783 32.4326L19.3318 24.5839ZM24.7927 24.0507C23.0668 24.7598 21.166 24.9459 19.3318 24.5839L17.783 32.4326C21.1565 33.0983 24.6536 32.7569 27.8334 31.4503L24.7927 24.0507ZM29.0195 20.6112C27.9879 22.143 26.5182 23.3416 24.7927 24.0507L27.8334 31.4503C31.0134 30.1435 33.7366 27.9284 35.6549 25.0803L29.0195 20.6112ZM40.3523 51.3977H2V59.3977H40.3523V51.3977ZM36.3523 45.8857V55.3977H44.3523V45.8857H36.3523ZM33.5991 39.3134C35.363 41.0634 36.3494 43.4293 36.3523 45.8903L44.3523 45.8811C44.347 41.2809 42.5023 36.8771 39.2333 33.6341L33.5991 39.3134ZM26.9244 36.5689C29.4342 36.5718 31.834 37.5624 33.5991 39.3134L39.2333 33.6341C35.9654 30.3921 31.5414 28.5741 26.9335 28.5689L26.9244 36.5689ZM15.4233 36.5689H26.929V28.5689H15.4233V36.5689ZM8.75321 39.3134C10.5183 37.5624 12.9181 36.5718 15.4278 36.5689L15.4188 28.5689C10.8109 28.5741 6.38685 30.3921 3.11894 33.6341L8.75321 39.3134ZM6 45.8903C6.00283 43.4293 6.98924 41.0634 8.75321 39.3134L3.11894 33.6341C-0.150039 36.8771 -1.99471 41.2809 -2 45.8811L6 45.8903ZM6 55.3977V45.8857H-2V55.3977H6Z" fill="#34A853" mask="url(#path-1-inside-1_2482_1628)"/>
</g>
<defs>
<filter id="filter0_d_2482_1628" x="0" y="0.130615" width="44.3523" height="59.2671" filterUnits="userSpaceOnUse" color-interpolation-filters="sRGB">
<feFlood flood-opacity="0" result="BackgroundImageFix"/>
<feColorMatrix in="SourceAlpha" type="matrix" values="0 0 0 0 0 0 0 0 0 0 0 0 0 0 0 0 0 0 127 0" result="hardAlpha"/>
<feOffset dx="1" dy="1"/>
<feGaussianBlur stdDeviation="1.5"/>
<feComposite in2="hardAlpha" operator="out"/>
<feColorMatrix type="matrix" values="0 0 0 0 0 0 0 0 0 0 0 0 0 0 0 0 0 0 0.3 0"/>
<feBlend mode="normal" in2="BackgroundImageFix" result="effect1_dropShadow_2482_1628"/>
<feBlend mode="normal" in="SourceGraphic" in2="effect1_dropShadow_2482_1628" result="shape"/>
</filter>
</defs>
</svg>
