<svg width="19" height="25" viewBox="0 0 19 25" fill="none" xmlns="http://www.w3.org/2000/svg">
<path fill-rule="evenodd" clip-rule="evenodd" d="M15.0607 9.45229C15.7779 8.45303 16.1607 7.27822 16.1607 6.07642C16.1607 4.46485 15.473 2.91929 14.2491 1.77974C13.0251 0.640192 11.365 0 9.63404 0C8.3432 0 7.08134 0.356376 6.00804 1.02406C4.93475 1.69175 4.09821 2.64075 3.60423 3.75107C3.11024 4.86139 2.981 6.08316 3.23283 7.26187C3.48466 8.44058 4.10626 9.52329 5.01902 10.3731C5.93179 11.2229 7.09472 11.8016 8.36076 12.0361C9.6268 12.2705 10.9391 12.1502 12.1317 11.6903C13.3243 11.2304 14.3436 10.4516 15.0607 9.45229ZM0 25H18.6475V20.6597C18.6455 19.0487 17.9572 17.5042 16.7337 16.3651C15.5101 15.2259 13.8512 14.5851 12.1209 14.5833H6.52662C4.79626 14.5851 3.13733 15.2259 1.91378 16.3651C0.690232 17.5042 0.00197417 19.0487 0 20.6597V25Z" fill="#141414"/>
</svg>
