<svg width="34" height="45" viewBox="0 0 34 45" fill="none" xmlns="http://www.w3.org/2000/svg">
<g filter="url(#filter0_d_2482_3156)">
<mask id="path-1-inside-1_2482_3156" fill="white">
<path fill-rule="evenodd" clip-rule="evenodd" d="M23.6694 16.9608C24.723 15.3841 25.2853 13.5303 25.2853 11.634C25.2853 9.09105 24.2751 6.65229 22.477 4.85418C20.6789 3.05607 18.2402 2.0459 15.6972 2.0459C13.8009 2.0459 11.9471 2.60823 10.3704 3.66178C8.79365 4.71533 7.56472 6.21278 6.83902 7.96477C6.11332 9.71676 5.92345 11.6446 6.2934 13.5045C6.66336 15.3644 7.57654 17.0728 8.91745 18.4138C10.2584 19.7547 11.9668 20.6678 13.8267 21.0378C15.6866 21.4078 17.6144 21.2179 19.3664 20.4922C21.1184 19.7665 22.6159 18.5376 23.6694 16.9608ZM2 40.3982H29.3945V33.5496C29.3916 31.0075 28.3805 28.5704 26.583 26.773C24.7855 24.9755 22.3484 23.9644 19.8064 23.9615H11.5881C9.04605 23.9644 6.60897 24.9755 4.81148 26.773C3.014 28.5704 2.0029 31.0075 2 33.5496V40.3982Z"/>
</mask>
<path fill-rule="evenodd" clip-rule="evenodd" d="M23.6694 16.9608C24.723 15.3841 25.2853 13.5303 25.2853 11.634C25.2853 9.09105 24.2751 6.65229 22.477 4.85418C20.6789 3.05607 18.2402 2.0459 15.6972 2.0459C13.8009 2.0459 11.9471 2.60823 10.3704 3.66178C8.79365 4.71533 7.56472 6.21278 6.83902 7.96477C6.11332 9.71676 5.92345 11.6446 6.2934 13.5045C6.66336 15.3644 7.57654 17.0728 8.91745 18.4138C10.2584 19.7547 11.9668 20.6678 13.8267 21.0378C15.6866 21.4078 17.6144 21.2179 19.3664 20.4922C21.1184 19.7665 22.6159 18.5376 23.6694 16.9608ZM2 40.3982H29.3945V33.5496C29.3916 31.0075 28.3805 28.5704 26.583 26.773C24.7855 24.9755 22.3484 23.9644 19.8064 23.9615H11.5881C9.04605 23.9644 6.60897 24.9755 4.81148 26.773C3.014 28.5704 2.0029 31.0075 2 33.5496V40.3982Z" fill="white"/>
<path d="M23.6694 16.9608L26.1638 18.6275H26.1638L23.6694 16.9608ZM22.477 4.85418L24.5984 2.73286V2.73286L22.477 4.85418ZM10.3704 3.66178L8.70368 1.16737L8.70368 1.16737L10.3704 3.66178ZM6.83902 7.96477L4.06738 6.81672L4.06738 6.81672L6.83902 7.96477ZM6.2934 13.5045L3.35105 14.0898L3.35105 14.0898L6.2934 13.5045ZM8.91745 18.4138L6.79613 20.5351L6.79613 20.5351L8.91745 18.4138ZM13.8267 21.0378L14.412 18.0954H14.412L13.8267 21.0378ZM19.3664 20.4922L20.5145 23.2638H20.5145L19.3664 20.4922ZM29.3945 40.3982V43.3982H32.3945V40.3982H29.3945ZM2 40.3982H-1V43.3982H2V40.3982ZM29.3945 33.5496H32.3945L32.3945 33.5461L29.3945 33.5496ZM19.8064 23.9615L19.8098 20.9615H19.8064V23.9615ZM11.5881 23.9615V20.9615L11.5846 20.9615L11.5881 23.9615ZM2 33.5496L-1 33.5461V33.5496H2ZM22.2853 11.634C22.2853 12.937 21.8989 14.2107 21.175 15.2941L26.1638 18.6275C27.547 16.5574 28.2853 14.1237 28.2853 11.634H22.2853ZM20.3557 6.9755C21.5912 8.211 22.2853 9.8867 22.2853 11.634H28.2853C28.2853 8.2954 26.9591 5.09358 24.5984 2.73286L20.3557 6.9755ZM15.6972 5.0459C17.4445 5.0459 19.1202 5.74 20.3557 6.9755L24.5984 2.73286C22.2376 0.372137 19.0358 -0.954102 15.6972 -0.954102V5.0459ZM12.0371 6.15619C13.1205 5.43228 14.3942 5.0459 15.6972 5.0459V-0.954102C13.2076 -0.954102 10.7738 -0.215824 8.70368 1.16737L12.0371 6.15619ZM9.61066 9.11282C10.1093 7.90901 10.9537 6.88009 12.0371 6.15619L8.70368 1.16737C6.63359 2.55057 5.02014 4.51655 4.06738 6.81672L9.61066 9.11282ZM9.23576 12.9192C8.98156 11.6413 9.11202 10.3166 9.61066 9.11282L4.06738 6.81672C3.11462 9.11689 2.86533 11.6479 3.35105 14.0898L9.23576 12.9192ZM11.0388 16.2924C10.1174 15.3711 9.48996 14.1972 9.23576 12.9192L3.35105 14.0898C3.83676 16.5316 5.03566 18.7746 6.79613 20.5351L11.0388 16.2924ZM14.412 18.0954C13.134 17.8412 11.9601 17.2138 11.0388 16.2924L6.79613 20.5351C8.55661 22.2955 10.7996 23.4944 13.2414 23.9802L14.412 18.0954ZM18.2184 17.7205C17.0146 18.2192 15.6899 18.3496 14.412 18.0954L13.2414 23.9802C15.6833 24.4659 18.2143 24.2166 20.5145 23.2638L18.2184 17.7205ZM21.175 15.2941C20.4511 16.3775 19.4222 17.2219 18.2184 17.7205L20.5145 23.2638C22.8147 22.3111 24.7806 20.6976 26.1638 18.6275L21.175 15.2941ZM29.3945 37.3982H2V43.3982H29.3945V37.3982ZM26.3945 33.5496V40.3982H32.3945V33.5496H26.3945ZM24.4617 28.8943C25.6974 30.13 26.3925 31.8054 26.3945 33.553L32.3945 33.5461C32.3907 30.2096 31.0636 27.0109 28.7043 24.6516L24.4617 28.8943ZM19.803 26.9615C21.5506 26.9635 23.226 27.6586 24.4617 28.8943L28.7043 24.6516C26.3451 22.2924 23.1463 20.9653 19.8098 20.9615L19.803 26.9615ZM11.5881 26.9615H19.8064V20.9615H11.5881V26.9615ZM6.93281 28.8943C8.16852 27.6586 9.84393 26.9635 11.5915 26.9615L11.5846 20.9615C8.24816 20.9653 5.04942 22.2924 2.69016 24.6516L6.93281 28.8943ZM5 33.553C5.00199 31.8054 5.69709 30.13 6.93281 28.8943L2.69016 24.6516C0.330911 27.0109 -0.99619 30.2096 -0.999998 33.5461L5 33.553ZM5 40.3982V33.5496H-1V40.3982H5Z" fill="#34A853" mask="url(#path-1-inside-1_2482_3156)"/>
</g>
<defs>
<filter id="filter0_d_2482_3156" x="0" y="0.0458984" width="33.3945" height="44.3525" filterUnits="userSpaceOnUse" color-interpolation-filters="sRGB">
<feFlood flood-opacity="0" result="BackgroundImageFix"/>
<feColorMatrix in="SourceAlpha" type="matrix" values="0 0 0 0 0 0 0 0 0 0 0 0 0 0 0 0 0 0 127 0" result="hardAlpha"/>
<feOffset dx="1" dy="1"/>
<feGaussianBlur stdDeviation="1.5"/>
<feComposite in2="hardAlpha" operator="out"/>
<feColorMatrix type="matrix" values="0 0 0 0 0.0784314 0 0 0 0 0.0784314 0 0 0 0 0.0784314 0 0 0 0.3 0"/>
<feBlend mode="normal" in2="BackgroundImageFix" result="effect1_dropShadow_2482_3156"/>
<feBlend mode="normal" in="SourceGraphic" in2="effect1_dropShadow_2482_3156" result="shape"/>
</filter>
</defs>
</svg>
