<svg width="10" height="12" viewBox="0 0 10 12" fill="none" xmlns="http://www.w3.org/2000/svg">
<path d="M5 0C5.51312 -4.01377e-07 6.00661 0.197218 6.37841 0.550862C6.7502 0.904506 6.97184 1.38752 6.9975 1.9L7 2H9.5C9.62744 2.00014 9.75002 2.04894 9.84268 2.13642C9.93535 2.22391 9.99112 2.34348 9.99859 2.4707C10.0061 2.59792 9.96466 2.72319 9.88287 2.82092C9.80107 2.91864 9.68505 2.98145 9.5585 2.9965L9.5 3H9.0755L8.4855 10.2765C8.44744 10.746 8.23403 11.184 7.88772 11.5034C7.54141 11.8227 7.08758 12 6.6165 12H3.3835C2.91242 12 2.45859 11.8227 2.11228 11.5034C1.76597 11.184 1.55256 10.746 1.5145 10.2765L0.924 3H0.5C0.377533 2.99998 0.259331 2.95502 0.167814 2.87364C0.0762966 2.79226 0.0178286 2.68013 0.00349998 2.5585L0 2.5C1.61553e-05 2.37753 0.044978 2.25933 0.126358 2.16781C0.207737 2.0763 0.319874 2.01783 0.4415 2.0035L0.5 2H3C3 1.46957 3.21071 0.960859 3.58579 0.585786C3.96086 0.210714 4.46957 0 5 0ZM3.875 4.625C3.78438 4.625 3.69683 4.65782 3.62853 4.71738C3.56024 4.77695 3.51582 4.85922 3.5035 4.949L3.5 5V9L3.5035 9.051C3.51585 9.14076 3.56028 9.22301 3.62857 9.28255C3.69686 9.34208 3.7844 9.37488 3.875 9.37488C3.9656 9.37488 4.05314 9.34208 4.12143 9.28255C4.18972 9.22301 4.23415 9.14076 4.2465 9.051L4.25 9V5L4.2465 4.949C4.23418 4.85922 4.18976 4.77695 4.12147 4.71738C4.05317 4.65782 3.96562 4.625 3.875 4.625ZM6.125 4.625C6.03438 4.625 5.94683 4.65782 5.87853 4.71738C5.81024 4.77695 5.76582 4.85922 5.7535 4.949L5.75 5V9L5.7535 9.051C5.76585 9.14076 5.81028 9.22301 5.87857 9.28255C5.94686 9.34208 6.0344 9.37488 6.125 9.37488C6.2156 9.37488 6.30314 9.34208 6.37143 9.28255C6.43972 9.22301 6.48415 9.14076 6.4965 9.051L6.5 9V5L6.4965 4.949C6.48418 4.85922 6.43976 4.77695 6.37147 4.71738C6.30317 4.65782 6.21562 4.625 6.125 4.625ZM5 1C4.74771 0.99992 4.50472 1.0952 4.31973 1.26675C4.13474 1.43829 4.02142 1.67342 4.0025 1.925L4 2H6L5.9975 1.925C5.97858 1.67342 5.86526 1.43829 5.68027 1.26675C5.49528 1.0952 5.25229 0.99992 5 1Z" fill="#EA4335"/>
</svg>
