<svg width="34" height="25" viewBox="0 0 34 25" fill="none" xmlns="http://www.w3.org/2000/svg">
<rect width="34" height="25" fill="#E5E5E5"/>
<g clip-path="url(#clip0_2_3)">
<path d="M30.1475 0H3.16628C1.41759 0 0 1.41759 0 3.16628V21.8337C0 23.5824 1.41759 25 3.16628 25H30.1475C31.8962 25 33.3138 23.5824 33.3138 21.8337V3.16628C33.3138 1.41759 31.8962 0 30.1475 0Z" fill="white"/>
<path d="M30.1475 25H29.1504V5.46148L16.6569 15.1401L4.18131 5.50459L4.16341 25H3.16628C2.32685 24.9985 1.52225 24.6643 0.928757 24.0707C0.335267 23.477 0.00129008 22.6723 0 21.8329L0 3.16628C0.00150506 2.32699 0.335577 1.52251 0.929043 0.929043C1.52251 0.335577 2.32699 0.00150506 3.16628 0L4.34072 0L16.6569 9.85669L28.9812 0H30.1475C30.9868 0.00150506 31.7913 0.335577 32.3848 0.929043C32.9782 1.52251 33.3123 2.32699 33.3138 3.16628V21.8329C33.3125 22.6723 32.9785 23.477 32.3851 24.0707C31.7916 24.6643 30.987 24.9985 30.1475 25Z" fill="#141414"/>
</g>
<defs>
<clipPath id="clip0_2_3">
<rect width="33.3138" height="25" fill="white"/>
</clipPath>
</defs>
</svg>
