<svg width="25" height="25" viewBox="0 0 25 25" fill="none" xmlns="http://www.w3.org/2000/svg">
<path d="M24.5405 19.5831L18.836 14.3964C18.5663 14.1513 18.212 14.0206 17.8478 14.0319C17.4835 14.0431 17.1379 14.1955 16.8839 14.4567L13.5257 17.9103C12.7174 17.756 11.0924 17.2494 9.41959 15.5808C7.74681 13.9066 7.24021 12.2774 7.09005 11.4746L10.5409 8.11506C10.8025 7.86124 10.955 7.51559 10.9663 7.15126C10.9776 6.78693 10.8466 6.43252 10.6012 6.16302L5.41587 0.459862C5.17035 0.189519 4.82911 0.0255356 4.46462 0.00273902C4.10014 -0.0200576 3.74113 0.100129 3.46383 0.337772L0.41859 2.94938C0.175969 3.19288 0.0311562 3.51696 0.0116224 3.86015C-0.00942766 4.21098 -0.410782 12.5215 6.03334 18.9685C11.6551 24.5888 18.697 25 20.6365 25C20.9199 25 21.0939 24.9916 21.1403 24.9888C21.4834 24.9696 21.8073 24.8241 22.0496 24.5804L24.6598 21.5338C24.8984 21.2574 25.0195 20.8986 24.9972 20.5342C24.9749 20.1697 24.811 19.8284 24.5405 19.5831Z" fill="#141414"/>
</svg>
