<svg width="50" height="31" viewBox="0 0 50 31" fill="none" xmlns="http://www.w3.org/2000/svg">
<g filter="url(#filter0_d_2482_632)">
<path d="M31.0218 2C32.1186 2 32.8915 3.07681 32.5405 4.11596L25.1794 25.91C24.9593 26.5614 24.3483 27 23.6606 27C22.5638 27 21.791 25.9232 22.1419 24.884L29.5031 3.09004C29.7231 2.43856 30.3342 2 31.0218 2Z" fill="#141414"/>
</g>
<g filter="url(#filter1_d_2482_632)">
<mask id="path-2-inside-1_2482_632" fill="white">
<path fill-rule="evenodd" clip-rule="evenodd" d="M5.33997 11.519C4.7254 10.6065 4.39737 9.53377 4.39737 8.43635C4.39737 6.96475 4.98664 5.55343 6.03553 4.51286C7.08443 3.47228 8.50704 2.8877 9.99041 2.8877C11.0966 2.8877 12.178 3.21312 13.0977 3.82281C14.0175 4.43251 14.7344 5.29909 15.1577 6.31297C15.581 7.32685 15.6918 8.4425 15.476 9.51883C15.2602 10.5952 14.7275 11.5838 13.9453 12.3598C13.1631 13.1358 12.1665 13.6643 11.0816 13.8784C9.99662 14.0925 8.87204 13.9826 7.85005 13.5626C6.82805 13.1427 5.95454 12.4315 5.33997 11.519ZM17.9805 25.0823H2.00035V21.119C2.00205 19.6479 2.59186 18.2376 3.64039 17.1973C4.68892 16.1571 6.11055 15.572 7.59339 15.5703H12.3874C13.8703 15.572 15.2919 16.1571 16.3404 17.1973C17.389 18.2376 17.9788 19.6479 17.9805 21.119V25.0823Z"/>
</mask>
<path fill-rule="evenodd" clip-rule="evenodd" d="M5.33997 11.519C4.7254 10.6065 4.39737 9.53377 4.39737 8.43635C4.39737 6.96475 4.98664 5.55343 6.03553 4.51286C7.08443 3.47228 8.50704 2.8877 9.99041 2.8877C11.0966 2.8877 12.178 3.21312 13.0977 3.82281C14.0175 4.43251 14.7344 5.29909 15.1577 6.31297C15.581 7.32685 15.6918 8.4425 15.476 9.51883C15.2602 10.5952 14.7275 11.5838 13.9453 12.3598C13.1631 13.1358 12.1665 13.6643 11.0816 13.8784C9.99662 14.0925 8.87204 13.9826 7.85005 13.5626C6.82805 13.1427 5.95454 12.4315 5.33997 11.519ZM17.9805 25.0823H2.00035V21.119C2.00205 19.6479 2.59186 18.2376 3.64039 17.1973C4.68892 16.1571 6.11055 15.572 7.59339 15.5703H12.3874C13.8703 15.572 15.2919 16.1571 16.3404 17.1973C17.389 18.2376 17.9788 19.6479 17.9805 21.119V25.0823Z" fill="white"/>
<path d="M5.33997 11.519L6.16938 10.9604L6.16938 10.9604L5.33997 11.519ZM6.03553 4.51286L5.33125 3.80294L5.33125 3.80294L6.03553 4.51286ZM13.0977 3.82281L12.5452 4.65632V4.65632L13.0977 3.82281ZM15.1577 6.31297L14.2349 6.69826V6.69826L15.1577 6.31297ZM11.0816 13.8784L10.888 12.8973L10.888 12.8973L11.0816 13.8784ZM7.85005 13.5626L8.23013 12.6377L8.23013 12.6377L7.85005 13.5626ZM2.00035 25.0823V26.0823H1.00035V25.0823H2.00035ZM17.9805 25.0823H18.9805V26.0823H17.9805V25.0823ZM2.00035 21.119H1.00035V21.1178L2.00035 21.119ZM3.64039 17.1973L4.34467 17.9073L3.64039 17.1973ZM7.59339 15.5703L7.59226 14.5703H7.59339V15.5703ZM12.3874 15.5703V14.5703L12.3886 14.5703L12.3874 15.5703ZM16.3404 17.1973L15.6362 17.9073H15.6362L16.3404 17.1973ZM17.9805 21.119L18.9805 21.1178V21.119H17.9805ZM5.39737 8.43635C5.39737 9.3342 5.66571 10.2126 6.16938 10.9604L4.51055 12.0776C3.78509 11.0005 3.39737 9.73333 3.39737 8.43635H5.39737ZM6.73982 5.22278C5.87933 6.07644 5.39737 7.23255 5.39737 8.43635H3.39737C3.39737 6.69695 4.09395 5.03042 5.33125 3.80294L6.73982 5.22278ZM9.99041 3.8877C8.7697 3.8877 7.60058 4.36885 6.73982 5.22278L5.33125 3.80294C6.56829 2.57572 8.24439 1.8877 9.99041 1.8877V3.8877ZM12.5452 4.65632C11.7897 4.15549 10.9006 3.8877 9.99041 3.8877V1.8877C11.2926 1.8877 12.5662 2.27074 13.6502 2.98931L12.5452 4.65632ZM14.2349 6.69826C13.8883 5.86801 13.3007 5.15708 12.5452 4.65632L13.6502 2.98931C14.7343 3.70793 15.5805 4.73017 16.0805 5.92768L14.2349 6.69826ZM14.4955 9.32224C14.6721 8.44147 14.5815 7.52843 14.2349 6.69826L16.0805 5.92768C16.5805 7.12527 16.7115 8.44353 16.4565 9.71542L14.4955 9.32224ZM13.241 11.6499C13.8828 11.0133 14.3189 10.2031 14.4955 9.32224L16.4565 9.71542C16.2015 10.9873 15.5722 12.1544 14.6496 13.0698L13.241 11.6499ZM10.888 12.8973C11.7804 12.7212 12.5992 12.2867 13.241 11.6499L14.6496 13.0698C13.727 13.985 12.5526 14.6074 11.2752 14.8595L10.888 12.8973ZM8.23013 12.6377C9.07039 12.983 9.99543 13.0734 10.888 12.8973L11.2752 14.8595C9.9978 15.1115 8.6737 14.9822 7.46996 14.4876L8.23013 12.6377ZM6.16938 10.9604C6.67312 11.7083 7.38995 12.2924 8.23013 12.6377L7.46996 14.4876C6.26615 13.9929 5.23595 13.1547 4.51055 12.0776L6.16938 10.9604ZM2.00035 24.0823H17.9805V26.0823H2.00035V24.0823ZM3.00035 21.119V25.0823H1.00035V21.119H3.00035ZM4.34467 17.9073C3.48427 18.7608 3.00174 19.9164 3.00035 21.1201L1.00035 21.1178C1.00236 19.3793 1.69945 17.7143 2.9361 16.4874L4.34467 17.9073ZM7.59453 16.5703C6.37395 16.5717 5.20535 17.0534 4.34467 17.9073L2.9361 16.4874C4.17249 15.2608 5.84715 14.5723 7.59226 14.5703L7.59453 16.5703ZM12.3874 16.5703H7.59339V14.5703H12.3874V16.5703ZM15.6362 17.9073C14.7755 17.0534 13.6069 16.5717 12.3863 16.5703L12.3886 14.5703C14.1337 14.5723 15.8083 15.2608 17.0447 16.4874L15.6362 17.9073ZM16.9805 21.1201C16.9791 19.9164 16.4966 18.7608 15.6362 17.9073L17.0447 16.4874C18.2814 17.7143 18.9785 19.3793 18.9805 21.1178L16.9805 21.1201ZM16.9805 25.0823V21.119H18.9805V25.0823H16.9805Z" fill="#141414" mask="url(#path-2-inside-1_2482_632)"/>
</g>
<g filter="url(#filter2_d_2482_632)">
<mask id="path-4-inside-2_2482_632" fill="white">
<path fill-rule="evenodd" clip-rule="evenodd" d="M36.473 15.3168C36.034 14.6599 35.7997 13.8875 35.7997 13.0973C35.7997 12.0378 36.2206 11.0216 36.9699 10.2724C37.7191 9.5232 38.7352 9.10229 39.7948 9.10229C40.5849 9.10229 41.3573 9.3366 42.0143 9.77558C42.6713 10.2146 43.1833 10.8385 43.4857 11.5685C43.7881 12.2985 43.8672 13.1018 43.713 13.8767C43.5589 14.6517 43.1784 15.3635 42.6197 15.9222C42.061 16.4809 41.3491 16.8614 40.5742 17.0156C39.7992 17.1697 38.9959 17.0906 38.2659 16.7882C37.5359 16.4859 36.912 15.9738 36.473 15.3168ZM45.502 22.2288V25.0824H34.0876V22.2288C34.0888 21.1696 34.5101 20.1542 35.259 19.4052C36.008 18.6563 37.0234 18.235 38.0826 18.2338H41.5069C42.5661 18.235 43.5816 18.6563 44.3305 19.4052C45.0795 20.1542 45.5007 21.1696 45.502 22.2288Z"/>
</mask>
<path fill-rule="evenodd" clip-rule="evenodd" d="M36.473 15.3168C36.034 14.6599 35.7997 13.8875 35.7997 13.0973C35.7997 12.0378 36.2206 11.0216 36.9699 10.2724C37.7191 9.5232 38.7352 9.10229 39.7948 9.10229C40.5849 9.10229 41.3573 9.3366 42.0143 9.77558C42.6713 10.2146 43.1833 10.8385 43.4857 11.5685C43.7881 12.2985 43.8672 13.1018 43.713 13.8767C43.5589 14.6517 43.1784 15.3635 42.6197 15.9222C42.061 16.4809 41.3491 16.8614 40.5742 17.0156C39.7992 17.1697 38.9959 17.0906 38.2659 16.7882C37.5359 16.4859 36.912 15.9738 36.473 15.3168ZM45.502 22.2288V25.0824H34.0876V22.2288C34.0888 21.1696 34.5101 20.1542 35.259 19.4052C36.008 18.6563 37.0234 18.235 38.0826 18.2338H41.5069C42.5661 18.235 43.5816 18.6563 44.3305 19.4052C45.0795 20.1542 45.5007 21.1696 45.502 22.2288Z" fill="white"/>
<path d="M36.473 15.3168L35.6416 15.8724L36.473 15.3168ZM36.9699 10.2724L36.2628 9.5653L36.9699 10.2724ZM42.0143 9.77558L42.5699 8.94411L42.0143 9.77558ZM43.4857 11.5685L44.4096 11.1858L44.4096 11.1858L43.4857 11.5685ZM42.6197 15.9222L41.9126 15.2151L41.9126 15.2151L42.6197 15.9222ZM40.5742 17.0156L40.3791 16.0348H40.3791L40.5742 17.0156ZM38.2659 16.7882L37.8833 17.7121L37.8833 17.7121L38.2659 16.7882ZM45.502 25.0824H46.502V26.0824H45.502V25.0824ZM45.502 22.2288L46.502 22.2277V22.2288H45.502ZM34.0876 25.0824V26.0824H33.0876V25.0824H34.0876ZM34.0876 22.2288H33.0876L33.0876 22.2277L34.0876 22.2288ZM35.259 19.4052L34.5519 18.6981V18.6981L35.259 19.4052ZM38.0826 18.2338L38.0815 17.2338H38.0826V18.2338ZM41.5069 18.2338V17.2338L41.5081 17.2338L41.5069 18.2338ZM44.3305 19.4052L43.6234 20.1123L44.3305 19.4052ZM36.7997 13.0973C36.7997 13.6897 36.9754 14.2687 37.3045 14.7613L35.6416 15.8724C35.0927 15.051 34.7997 14.0852 34.7997 13.0973H36.7997ZM37.677 10.9795C37.1153 11.5412 36.7997 12.303 36.7997 13.0973H34.7997C34.7997 11.7726 35.326 10.5021 36.2628 9.5653L37.677 10.9795ZM39.7948 10.1023C39.0004 10.1023 38.2386 10.4178 37.677 10.9795L36.2628 9.5653C37.1995 8.62856 38.47 8.10229 39.7948 8.10229V10.1023ZM41.4587 10.607C40.9662 10.278 40.3871 10.1023 39.7948 10.1023V8.10229C40.7827 8.10229 41.7484 8.39525 42.5699 8.94411L41.4587 10.607ZM42.5618 11.9512C42.3351 11.4039 41.9512 10.9361 41.4587 10.607L42.5699 8.94411C43.3913 9.49297 44.0315 10.2731 44.4096 11.1858L42.5618 11.9512ZM42.7322 13.6816C42.8478 13.1006 42.7885 12.4984 42.5618 11.9512L44.4096 11.1858C44.7876 12.0985 44.8866 13.1029 44.6938 14.0718L42.7322 13.6816ZM41.9126 15.2151C42.3314 14.7963 42.6167 14.2626 42.7322 13.6816L44.6938 14.0718C44.5011 15.0407 44.0254 15.9308 43.3268 16.6293L41.9126 15.2151ZM40.3791 16.0348C40.96 15.9192 41.4937 15.634 41.9126 15.2151L43.3268 16.6293C42.6282 17.3279 41.7382 17.8036 40.7693 17.9964L40.3791 16.0348ZM38.6486 15.8644C39.1959 16.0911 39.7981 16.1504 40.3791 16.0348L40.7693 17.9964C39.8003 18.1891 38.796 18.0902 37.8833 17.7121L38.6486 15.8644ZM37.3045 14.7613C37.6336 15.2538 38.1014 15.6377 38.6486 15.8644L37.8833 17.7121C36.9705 17.3341 36.1904 16.6938 35.6416 15.8724L37.3045 14.7613ZM44.502 25.0824V22.2288H46.502V25.0824H44.502ZM34.0876 24.0824H45.502V26.0824H34.0876V24.0824ZM35.0876 22.2288V25.0824H33.0876V22.2288H35.0876ZM35.9661 20.1123C35.4044 20.674 35.0885 21.4356 35.0876 22.23L33.0876 22.2277C33.0891 20.9037 33.6157 19.6343 34.5519 18.6981L35.9661 20.1123ZM38.0838 19.2338C37.2894 19.2347 36.5278 19.5507 35.9661 20.1123L34.5519 18.6981C35.4881 17.7619 36.7575 17.2353 38.0815 17.2338L38.0838 19.2338ZM41.5069 19.2338H38.0826V17.2338H41.5069V19.2338ZM43.6234 20.1123C43.0617 19.5507 42.3001 19.2347 41.5058 19.2338L41.5081 17.2338C42.8321 17.2353 44.1014 17.7619 45.0376 18.6981L43.6234 20.1123ZM44.502 22.23C44.501 21.4356 44.1851 20.674 43.6234 20.1123L45.0376 18.6981C45.9738 19.6343 46.5004 20.9037 46.502 22.2277L44.502 22.23Z" fill="#141414" mask="url(#path-4-inside-2_2482_632)"/>
</g>
<defs>
<filter id="filter0_d_2482_632" x="20.0562" y="0" width="16.5698" height="31" filterUnits="userSpaceOnUse" color-interpolation-filters="sRGB">
<feFlood flood-opacity="0" result="BackgroundImageFix"/>
<feColorMatrix in="SourceAlpha" type="matrix" values="0 0 0 0 0 0 0 0 0 0 0 0 0 0 0 0 0 0 127 0" result="hardAlpha"/>
<feOffset dx="1" dy="1"/>
<feGaussianBlur stdDeviation="1.5"/>
<feComposite in2="hardAlpha" operator="out"/>
<feColorMatrix type="matrix" values="0 0 0 0 0 0 0 0 0 0 0 0 0 0 0 0 0 0 0.3 0"/>
<feBlend mode="normal" in2="BackgroundImageFix" result="effect1_dropShadow_2482_632"/>
<feBlend mode="normal" in="SourceGraphic" in2="effect1_dropShadow_2482_632" result="shape"/>
</filter>
<filter id="filter1_d_2482_632" x="0.000488281" y="0.887695" width="21.98" height="28.1946" filterUnits="userSpaceOnUse" color-interpolation-filters="sRGB">
<feFlood flood-opacity="0" result="BackgroundImageFix"/>
<feColorMatrix in="SourceAlpha" type="matrix" values="0 0 0 0 0 0 0 0 0 0 0 0 0 0 0 0 0 0 127 0" result="hardAlpha"/>
<feOffset dx="1" dy="1"/>
<feGaussianBlur stdDeviation="1.5"/>
<feComposite in2="hardAlpha" operator="out"/>
<feColorMatrix type="matrix" values="0 0 0 0 0.0784314 0 0 0 0 0.0784314 0 0 0 0 0.0784314 0 0 0 0.3 0"/>
<feBlend mode="normal" in2="BackgroundImageFix" result="effect1_dropShadow_2482_632"/>
<feBlend mode="normal" in="SourceGraphic" in2="effect1_dropShadow_2482_632" result="shape"/>
</filter>
<filter id="filter2_d_2482_632" x="32.0874" y="7.10229" width="17.4146" height="21.9802" filterUnits="userSpaceOnUse" color-interpolation-filters="sRGB">
<feFlood flood-opacity="0" result="BackgroundImageFix"/>
<feColorMatrix in="SourceAlpha" type="matrix" values="0 0 0 0 0 0 0 0 0 0 0 0 0 0 0 0 0 0 127 0" result="hardAlpha"/>
<feOffset dx="1" dy="1"/>
<feGaussianBlur stdDeviation="1.5"/>
<feComposite in2="hardAlpha" operator="out"/>
<feColorMatrix type="matrix" values="0 0 0 0 0.0784314 0 0 0 0 0.0784314 0 0 0 0 0.0784314 0 0 0 0.3 0"/>
<feBlend mode="normal" in2="BackgroundImageFix" result="effect1_dropShadow_2482_632"/>
<feBlend mode="normal" in="SourceGraphic" in2="effect1_dropShadow_2482_632" result="shape"/>
</filter>
</defs>
</svg>
