<svg width="42" height="44" viewBox="0 0 42 44" fill="none" xmlns="http://www.w3.org/2000/svg">
<path d="M0 0.274292H36.3243C39.0857 0.274292 41.3243 2.51287 41.3243 5.27429V38.7257C41.3243 41.4872 39.0857 43.7258 36.3243 43.7258H0V0.274292Z" fill="#4285F4"/>
<path d="M6.62823 25.2968L28.681 10.5512C28.8012 10.4708 28.9416 10.4257 29.0862 10.4209C29.2308 10.4161 29.3738 10.452 29.4991 10.5243C29.6244 10.5966 29.7269 10.7026 29.7951 10.8302C29.8633 10.9578 29.8944 11.1019 29.8849 11.2463L28.1404 37.7187C28.1304 37.8669 28.0781 38.0091 27.9896 38.1284C27.9011 38.2477 27.7802 38.3391 27.6413 38.3916C27.5023 38.4441 27.3512 38.4556 27.2059 38.4247C27.0607 38.3938 26.9273 38.3217 26.8218 38.2172L20.2899 31.7242C20.1842 31.619 20.1111 31.4857 20.0793 31.34C20.0476 31.1944 20.0585 31.0427 20.1107 30.9031L23.9032 20.7792C23.9259 20.7189 23.9332 20.6539 23.9244 20.5901C23.9156 20.5263 23.8911 20.4657 23.853 20.4137L23.7864 20.3431C23.719 20.2875 23.6348 20.2562 23.5474 20.2545C23.46 20.2528 23.3746 20.2807 23.3051 20.3336L23.2402 20.3964L16.3314 28.7891C16.2365 28.9038 16.1107 28.9887 15.9688 29.0338C15.827 29.0788 15.6752 29.0821 15.5316 29.0431L6.85635 26.6901C6.71276 26.6513 6.58337 26.572 6.48363 26.4617C6.3839 26.3513 6.31803 26.2146 6.29389 26.0678C6.26976 25.921 6.28838 25.7704 6.34752 25.634C6.40667 25.4975 6.50385 25.3809 6.62745 25.2982L6.62823 25.2968Z" fill="white"/>
</svg>
