<svg width="75" height="36" viewBox="0 0 75 36" fill="none" xmlns="http://www.w3.org/2000/svg">
<g filter="url(#filter0_d_2_937)">
<path fill-rule="evenodd" clip-rule="evenodd" d="M29.2727 16.3636C32.6868 16.3636 35.4545 13.5959 35.4545 10.1818C35.4545 6.76769 32.6868 4 29.2727 4C25.8586 4 23.0909 6.76769 23.0909 10.1818C23.0909 13.5959 25.8586 16.3636 29.2727 16.3636ZM35.8106 15.1018C36.8427 13.7325 37.4545 12.0286 37.4545 10.1818C37.4545 5.66312 33.7914 2 29.2727 2C24.754 2 21.0909 5.66312 21.0909 10.1818C21.0909 10.8355 21.1676 11.4712 21.3124 12.0806L14.6637 16.972C13.3763 16.1275 11.8364 15.6364 10.1818 15.6364C5.66312 15.6364 2 19.2995 2 23.8182C2 28.3369 5.66312 32 10.1818 32C14.7005 32 18.3636 28.3369 18.3636 23.8182C18.3636 22.9432 18.2263 22.1002 17.9719 21.3098L24.2831 16.6666C25.6641 17.7308 27.3945 18.3636 29.2727 18.3636C29.7158 18.3636 30.1507 18.3284 30.5746 18.2606L37.4687 23.3326C37.4593 23.4933 37.4545 23.6552 37.4545 23.8182C37.4545 28.3369 41.1177 32 45.6364 32C50.1551 32 53.8182 28.3369 53.8182 23.8182C53.8182 23.3877 53.7849 22.965 53.7209 22.5524L57.5207 19.7569C58.8075 20.6004 60.3465 21.0909 62 21.0909C66.5187 21.0909 70.1818 17.4278 70.1818 12.9091C70.1818 8.3904 66.5187 4.72727 62 4.72727C57.4813 4.72727 53.8182 8.3904 53.8182 12.9091C53.8182 13.7852 53.9559 14.6291 54.2108 15.4203L51.0884 17.7175C49.6412 16.4232 47.7307 15.6364 45.6364 15.6364C43.3129 15.6364 41.2157 16.6048 39.7263 18.1601L35.8106 15.1018ZM12.9162 18.2725L16.1415 22.6564L16.2404 22.5837C16.3212 22.9826 16.3636 23.3954 16.3636 23.8182C16.3636 27.2323 13.5959 30 10.1818 30C6.76769 30 4 27.2323 4 23.8182C4 20.4041 6.76769 17.6364 10.1818 17.6364C11.1636 17.6364 12.0918 17.8652 12.9162 18.2725ZM51.8182 23.8182C51.8182 27.2323 49.0505 30 45.6364 30C42.2222 30 39.4545 27.2323 39.4545 23.8182C39.4545 20.4041 42.2222 17.6364 45.6364 17.6364C47.4633 17.6364 49.1052 18.4289 50.2369 19.6889L50.9533 20.6627C51.5027 21.5864 51.8182 22.6654 51.8182 23.8182ZM62 19.0909C65.4141 19.0909 68.1818 16.3232 68.1818 12.9091C68.1818 9.49497 65.4141 6.72727 62 6.72727C58.5859 6.72727 55.8182 9.49497 55.8182 12.9091C55.8182 16.3232 58.5859 19.0909 62 19.0909Z" fill="#141414"/>
</g>
<defs>
<filter id="filter0_d_2_937" x="0" y="0" width="74.1816" height="36" filterUnits="userSpaceOnUse" color-interpolation-filters="sRGB">
<feFlood flood-opacity="0" result="BackgroundImageFix"/>
<feColorMatrix in="SourceAlpha" type="matrix" values="0 0 0 0 0 0 0 0 0 0 0 0 0 0 0 0 0 0 127 0" result="hardAlpha"/>
<feOffset dx="1" dy="1"/>
<feGaussianBlur stdDeviation="1.5"/>
<feComposite in2="hardAlpha" operator="out"/>
<feColorMatrix type="matrix" values="0 0 0 0 0 0 0 0 0 0 0 0 0 0 0 0 0 0 0.3 0"/>
<feBlend mode="normal" in2="BackgroundImageFix" result="effect1_dropShadow_2_937"/>
<feBlend mode="normal" in="SourceGraphic" in2="effect1_dropShadow_2_937" result="shape"/>
</filter>
</defs>
</svg>
