<svg width="27" height="27" viewBox="0 0 27 27" fill="none" xmlns="http://www.w3.org/2000/svg">
<path d="M24.7963 1.13086L25.6296 1.97475C26.7793 3.13887 26.7898 5.01695 25.6506 6.16925L11.3111 20.682L6.37115 22.1047C6.06955 22.1891 5.74678 22.1504 5.47366 21.9971C5.20055 21.8439 4.9994 21.5885 4.91436 21.2871C4.85107 21.0703 4.85017 20.8402 4.91173 20.623L6.34884 15.5833L20.6503 1.10855C20.9223 0.834725 21.246 0.617786 21.6027 0.470389C21.9593 0.322991 22.3418 0.248085 22.7277 0.25004C23.1136 0.251995 23.4953 0.330771 23.8504 0.481773C24.2056 0.632776 24.5271 0.854295 24.7963 1.13086ZM9.67845 2.64409C10.3294 2.64409 10.857 3.17824 10.857 3.83708C10.858 3.99282 10.8284 4.14724 10.7697 4.29151C10.711 4.43578 10.6245 4.56706 10.515 4.67786C10.4056 4.78866 10.2753 4.87679 10.1318 4.93723C9.98824 4.99766 9.8342 5.02921 9.67845 5.03007H4.96423C3.66231 5.03007 2.60712 6.09838 2.60712 7.41474V21.728C2.60712 23.0457 3.66231 24.114 4.96423 24.114H19.1069C20.4088 24.114 21.4653 23.0457 21.4653 21.728V16.9574C21.4653 16.2985 21.9929 15.7644 22.6439 15.7644C23.2948 15.7644 23.8224 16.2985 23.8224 16.9587V21.728C23.8224 24.3634 21.7108 26.5 19.1069 26.5H4.96423C2.36038 26.5 0.250005 24.3634 0.250005 21.728V7.41474C0.250005 4.78071 2.36038 2.64409 4.96423 2.64409H9.67845Z" fill="#5F6368"/>
</svg>
