<svg width="45" height="27" viewBox="0 0 45 27" fill="none" xmlns="http://www.w3.org/2000/svg">
<path d="M28.7229 13.3722C28.7229 16.8529 25.7778 19.6745 22.1448 19.6745C18.5118 19.6745 15.5666 16.8529 15.5666 13.3722C15.5666 9.89157 18.5118 7.06999 22.1448 7.06999C25.7778 7.06995 28.7229 9.8916 28.7229 13.3722ZM22.1567 0.25C18.3951 0.266686 14.4961 1.18242 10.8052 2.93565C8.06477 4.29102 5.39405 6.20325 3.07574 8.56351C1.93711 9.76834 0.484803 11.5129 0.25 13.3743C0.277748 14.9867 2.00728 16.9768 3.07574 18.1851C5.24972 20.4527 7.85089 22.3115 10.8052 23.8144C14.2472 25.4848 18.0569 26.4465 22.1567 26.5C25.9218 26.4831 29.8199 25.5568 33.5067 23.8144C36.2472 22.459 38.9193 20.5454 41.2376 18.1851C42.3762 16.9803 43.8285 15.2357 44.0634 13.3743C44.0356 11.7619 42.3061 9.7717 41.2376 8.56344C39.0636 6.29588 36.4611 4.43845 33.5067 2.93558C30.0666 1.26643 26.2475 0.311302 22.1567 0.25ZM22.1539 3.50855C27.854 3.50855 32.4747 7.92617 32.4747 13.3757C32.4747 18.8252 27.854 23.2428 22.1539 23.2428C16.4538 23.2428 11.8331 18.8252 11.8331 13.3757C11.8331 7.92617 16.4538 3.50855 22.1539 3.50855Z" fill="#5F6368"/>
</svg>
